<?xml version="1.0" encoding="UTF-8"?>
<svg width="570px" height="476px" viewBox="0 0 570 476" version="1.1" xmlns="http://www.w3.org/2000/svg" xmlns:xlink="http://www.w3.org/1999/xlink">
    <!-- Generator: Sketch 52.6 (67491) - http://www.bohemiancoding.com/sketch -->
    <title>Group 7</title>
    <desc>Created with Sketch.</desc>
    <defs>
        <polygon id="path-1" points="0.224139455 0.57509375 26.8278868 0.57509375 26.8278868 81.2492094 0.224139455 81.2492094"></polygon>
    </defs>
    <g id="Page-1" stroke="none" stroke-width="1" fill="none" fill-rule="evenodd">
        <g id="exchange" transform="translate(-870.000000, -157.000000)">
            <g id="Group-7" transform="translate(870.000000, 157.000000)">
                <g id="Group-4" opacity="0.836449033" fill="#FFCE00" fill-opacity="0.208984375">
                    <g id="Group-3">
                        <path d="M1210.05477,475.903072 L4.49451318,475.903072 C-11.0341726,396.693963 13.6762186,335.797948 78.6256868,293.215026 C176.049889,229.340645 201.044661,215.417511 232.187697,164.292474 C263.330734,113.167437 340.688484,37.7612689 507,8.15625 C673.311516,-21.4487689 772.230737,38.8765082 890.839447,110.924616 C1009.44816,182.972723 1013.38988,142.826396 1127.88668,197.939644 C1204.21788,234.681809 1231.60724,327.336285 1210.05477,475.903072 Z" id="Path-7"></path>
                    </g>
                </g>
                <g id="Group-10" transform="translate(410.000000, 223.000000)">
                    <polygon id="Fill-1" fill="#DEDCD4" points="0 84 0 93.1327527 5.24390767 93.1327527 5.24390767 226 11.7983195 226 11.7983195 93.1327527 85.2016805 93.1327527 85.2016805 226 91.7560923 226 91.7560923 93.1327527 97 93.1327527 97 84"></polygon>
                    <g id="Group-9" transform="translate(17.000000, 0.000000)">
                        <g id="Group-4" transform="translate(0.000000, 15.000000)">
                            <mask id="mask-2" fill="white">
                                <use xlink:href="#path-1"></use>
                            </mask>
                            <g id="Clip-3"></g>
                            <path d="M11.0751792,63.1863528 L32.9292511,63.1863528 L32.9292511,61.6146319 L11.0751792,61.6146319 C8.35923806,61.6146319 5.96815216,60.0844211 4.83493609,57.6183477 C3.70172002,55.1522743 4.09834565,52.3409129 5.86805141,50.2842794 L23.4933386,29.8103984 L23.4933386,50.225788 C23.4933386,52.172986 25.0817298,53.7598014 27.0327502,53.7598014 C28.9837705,53.7598014 30.570273,52.172986 30.570273,50.225788 L30.570273,-25.1847366 C30.570273,-27.1319346 28.9837705,-28.71875 27.0327502,-28.71875 C25.0817298,-28.71875 23.4933386,-27.1319346 23.4933386,-25.1847366 L23.4933386,27.4009296 L4.67628584,49.2578495 C2.50051099,51.7880747 2.01322808,55.2428417 3.40519515,58.2730742 C4.79905092,61.3033067 7.73596922,63.1863528 11.0751792,63.1863528" id="Fill-2" fill="#DEDCD4" mask="url(#mask-2)"></path>
                        </g>
                        <polygon id="Fill-5" fill="#DEDCD4" points="40.5085779 72.802124 72.0950871 78.9588168 72.3953893 77.4135114 39.5056817 71.0039848 36.9125056 77.909745 38.3837978 78.4625832"></polygon>
                        <path d="M189.049407,151.394581 C197.512642,149.28323 204.009748,143.08314 206.918335,135.398124 L206.918335,151.394581 L189.049407,151.394581 Z M206.918335,99.4428866 L206.918335,115.622366 L201.063386,103.084449 C203.161724,102.139152 205.139186,100.922153 206.918335,99.4428866 Z M206.918335,117.231823 C206.729466,116.73559 206.531153,116.241243 206.310176,115.748783 L206.918335,115.748783 L206.918335,117.231823 Z M215.64221,73.1538272 C214.771523,70.5236004 213.439994,68.1009239 211.781721,65.8971184 L211.781721,43.7798174 L206.918335,43.7798174 L206.918335,60.7744028 C205.142964,59.2404184 203.235383,57.8517191 201.240923,56.6498149 C195.363309,53.1082542 188.564013,50.6346336 184.186021,45.3534251 C181.573958,42.2024361 180.061115,38.3137006 178.298964,34.6193076 C174.226941,26.0927692 168.666627,19.5455047 163.136533,11.8812429 C160.0183,7.56042568 156.646982,3.03017148 151.711826,1.00750072 C146.327161,-1.20007838 139.724289,0.465983451 135.727813,4.6188737 L135.654154,4.6094396 C135.642822,4.64528918 135.623935,4.70378059 135.612603,4.74340381 C134.843905,5.56228357 134.163975,6.46229659 133.625698,7.45853741 L134.653147,7.77929677 C134.044988,9.68875835 133.264957,12.1265295 132.483038,14.5605269 C130.711444,20.0700406 133.459493,26.0172964 138.806384,28.23997 L143.080497,37.3910458 C143.329805,39.4080561 143.679213,41.3929905 144.143831,43.334528 C140.678079,46.2685327 138.181226,50.6157654 137.202883,55.5894222 L128.633881,68.0386588 C126.560095,71.05191 122.516403,71.8764502 119.4265,69.9198181 L96.4089933,55.3365883 C91.5116112,52.2327699 85.1391595,52.5290006 80.5515231,56.072448 L75.1234181,60.2649615 L77.7260377,62.5234847 C77.865801,62.646128 78.0206739,62.7348086 78.1661033,62.8461309 L75.2650701,65.0876728 L77.8676897,67.346196 C81.1502389,70.1952938 85.9154125,70.5368082 89.5511474,68.2896059 L121.998901,97.2843648 C123.70628,98.810802 125.865056,99.6315686 128.133377,99.6315686 C128.348688,99.6315686 128.567777,99.6259081 128.784976,99.6089268 C131.289384,99.4372262 133.561482,98.2881529 135.18387,96.3768045 L139.784727,90.9597451 L141.939726,111.673252 L100.837979,122.926245 L101.064623,123.335685 L101.172278,123.528141 L89.7532376,126.63762 C82.3136741,129.154637 77.6278256,136.233985 77.9602357,143.822774 L77.9602357,143.841642 C77.9791226,144.758636 78.0962216,145.675631 78.290757,146.611493 L111.934053,215.350223 L112.245688,216.403069 L109.686508,216.772885 L102.853215,217.748371 C101.2856,217.967242 100.057949,219.057824 99.5574452,220.450297 C99.3383568,221.052193 99.2420334,221.706919 99.3345794,222.380514 C99.3836854,222.878634 99.5347809,223.339018 99.7519807,223.759779 C99.7633128,223.778647 99.7689789,223.803176 99.7784224,223.823931 C100.014509,224.261673 100.326143,224.650358 100.686884,224.978664 C101.211941,225.429614 101.867317,225.750374 102.577466,225.899433 C102.611463,225.90698 102.64357,225.922074 102.681344,225.929622 C102.724784,225.937169 102.770113,225.935282 102.815441,225.942829 C103.021309,225.973018 103.229065,225.999434 103.440599,225.999434 L103.450042,225.999434 L121.910132,225.999434 C121.972459,225.999434 122.031009,225.984339 122.091447,225.978679 C122.223655,225.969245 122.359641,225.963584 122.488072,225.935282 C122.522069,225.927735 122.552288,225.910753 122.586284,225.901319 C123.640175,225.614523 124.401319,224.682434 124.446647,223.601286 C124.456091,223.414491 124.444759,223.225809 124.408874,223.03524 L123.453195,216.772885 L123.218997,215.350223 L106.426623,151.587037 L116.740778,151.587037 L117.324384,152.637996 L148.552042,152.637996 L148.552042,159.898478 L152.199109,159.898478 L152.199109,225.999434 L157.062495,225.999434 L157.062495,159.898478 L206.918335,159.898478 L206.918335,225.99566 L211.781721,225.99566 L211.781721,159.898478 L211.781721,151.394581 L211.781721,94.1579045 C216.121939,88.0578163 218.001189,80.2897794 215.64221,73.1538272 Z" id="Fill-7" fill="#DEDCD4"></path>
                    </g>
                </g>
            </g>
        </g>
    </g>
</svg>