<?xml version="1.0" encoding="UTF-8"?>
<svg width="892px" height="467px" viewBox="0 0 892 467" version="1.1" xmlns="http://www.w3.org/2000/svg" xmlns:xlink="http://www.w3.org/1999/xlink">
    <!-- Generator: Sketch 52.6 (67491) - http://www.bohemiancoding.com/sketch -->
    <title>Group 4</title>
    <desc>Created with Sketch.</desc>
    <g id="Page-1" stroke="none" stroke-width="1" fill="none" fill-rule="evenodd" opacity="0.836449033">
        <g id="homepage" transform="translate(-486.000000, -182.000000)">
            <g id="Group-4" transform="translate(486.000000, 182.000000)">
                <g id="Group-3">
                    <path d="M885.961285,466.501062 L3.29073095,466.501062 C-8.078849,389.604985 10.0132659,330.487231 57.5670758,289.147798 C128.89779,227.13865 147.198119,213.622095 170,163.98999 C192.801881,114.357885 242.474432,1.23725423 373.328125,0.618627117 C504.181818,-1.66533454e-15 565.401298,42.2363697 652.242594,112.180558 C739.08389,182.124746 741.969888,143.150755 825.800584,196.654608 C881.687714,232.323844 901.741281,322.272662 885.961285,466.501062 Z" id="Path-7" fill-opacity="0.216570426" fill="#93D9FF"></path>
                    <path d="M259.228363,143.463415 L189.678161,143.463415 C191.655829,138.940976 196.172427,135.780488 201.427842,135.780488 C201.540655,135.780488 201.653127,135.781944 201.765241,135.784839 C203.579433,125.592526 212.49277,117.853659 223.215198,117.853659 C232.394816,117.853659 240.248494,123.525711 243.456875,131.553362 C243.826131,131.526079 244.199119,131.512195 244.575352,131.512195 C251.809055,131.512195 257.842989,136.644526 259.228363,143.463415 Z" id="Combined-Shape-Copy-2" fill="#FFFFFF"></path>
                    <g id="Group-2" opacity="0.56733631" style="mix-blend-mode: multiply;" transform="translate(158.065134, 47.000000)" fill="#D9ECF5">
                        <rect id="Rectangle" x="0" y="164.756098" width="104.237548" height="254.390244"></rect>
                        <rect id="Rectangle-Copy" x="87.1494253" y="37.5609756" width="128.16092" height="381.585366"></rect>
                        <rect id="Rectangle-Copy-2" x="199.076628" y="193.780488" width="128.16092" height="225.365854"></rect>
                        <rect id="Rectangle-Copy-3" x="305.022989" y="274.02439" width="128.16092" height="145.121951"></rect>
                        <rect id="Rectangle-Copy-4" x="410.969349" y="145.121951" width="128.16092" height="274.02439"></rect>
                        <rect id="Rectangle-Copy-5" x="582.704981" y="251.829268" width="128.16092" height="167.317073"></rect>
                        <rect id="Rectangle" x="129.869732" y="0" width="4.27203065" height="40.9756098"></rect>
                        <rect id="Rectangle" x="433.183908" y="126.341463" width="80.3141762" height="23.0487805"></rect>
                    </g>
                    <g id="Group" transform="translate(168.318008, 101.634146)" fill="#EDF8FD">
                        <rect id="Rectangle" x="0" y="126.341463" width="17.0881226" height="17.0731707"></rect>
                        <rect id="Rectangle-Copy-9" x="94.8390805" y="0" width="17.0881226" height="17.0731707"></rect>
                        <rect id="Rectangle-Copy-17" x="94.8390805" y="48.6585366" width="17.0881226" height="17.0731707"></rect>
                        <rect id="Rectangle-Copy-13" x="144.394636" y="0" width="17.0881226" height="17.0731707"></rect>
                        <rect id="Rectangle-Copy-18" x="144.394636" y="48.6585366" width="17.0881226" height="17.0731707"></rect>
                        <rect id="Rectangle-Copy-27" x="236.670498" y="147.682927" width="17.0881226" height="17.0731707"></rect>
                        <rect id="Rectangle-Copy-31" x="434.89272" y="101.585366" width="17.0881226" height="17.0731707"></rect>
                        <rect id="Rectangle-Copy-35" x="503.245211" y="101.585366" width="17.0881226" height="17.0731707"></rect>
                        <rect id="Rectangle-Copy-39" x="607.482759" y="208.292683" width="17.0881226" height="17.0731707"></rect>
                        <rect id="Rectangle-Copy-43" x="607.482759" y="257.804878" width="17.0881226" height="17.0731707"></rect>
                        <rect id="Rectangle-Copy-7" x="0" y="151.097561" width="17.0881226" height="17.0731707"></rect>
                        <rect id="Rectangle-Copy-10" x="94.8390805" y="24.7560976" width="17.0881226" height="17.0731707"></rect>
                        <rect id="Rectangle-Copy-14" x="144.394636" y="24.7560976" width="17.0881226" height="17.0731707"></rect>
                        <rect id="Rectangle-Copy-28" x="236.670498" y="172.439024" width="17.0881226" height="17.0731707"></rect>
                        <rect id="Rectangle-Copy-32" x="434.89272" y="126.341463" width="17.0881226" height="17.0731707"></rect>
                        <rect id="Rectangle-Copy-36" x="503.245211" y="126.341463" width="17.0881226" height="17.0731707"></rect>
                        <rect id="Rectangle-Copy-40" x="607.482759" y="233.04878" width="17.0881226" height="17.0731707"></rect>
                        <rect id="Rectangle-Copy-44" x="607.482759" y="282.560976" width="17.0881226" height="17.0731707"></rect>
                        <rect id="Rectangle-Copy-6" x="24.7777778" y="126.341463" width="17.0881226" height="17.0731707"></rect>
                        <rect id="Rectangle-Copy-25" x="169.172414" y="97.3170732" width="17.0881226" height="17.0731707"></rect>
                        <rect id="Rectangle-Copy-11" x="119.616858" y="0" width="17.0881226" height="17.0731707"></rect>
                        <rect id="Rectangle-Copy-21" x="119.616858" y="48.6585366" width="17.0881226" height="17.0731707"></rect>
                        <rect id="Rectangle-Copy-29" x="211.89272" y="147.682927" width="17.0881226" height="17.0731707"></rect>
                        <rect id="Rectangle-Copy-33" x="410.114943" y="101.585366" width="17.0881226" height="17.0731707"></rect>
                        <rect id="Rectangle-Copy-37" x="478.467433" y="101.585366" width="17.0881226" height="17.0731707"></rect>
                        <rect id="Rectangle-Copy-41" x="582.704981" y="208.292683" width="17.0881226" height="17.0731707"></rect>
                        <rect id="Rectangle-Copy-45" x="582.704981" y="257.804878" width="17.0881226" height="17.0731707"></rect>
                        <rect id="Rectangle-Copy-15" x="169.172414" y="0" width="17.0881226" height="17.0731707"></rect>
                        <rect id="Rectangle-Copy-22" x="169.172414" y="48.6585366" width="17.0881226" height="17.0731707"></rect>
                        <rect id="Rectangle-Copy-8" x="24.7777778" y="151.097561" width="17.0881226" height="17.0731707"></rect>
                        <rect id="Rectangle-Copy-26" x="169.172414" y="122.073171" width="17.0881226" height="17.0731707"></rect>
                        <rect id="Rectangle-Copy-23" x="119.616858" y="73.4146341" width="17.0881226" height="17.0731707"></rect>
                        <rect id="Rectangle-Copy-30" x="211.89272" y="172.439024" width="17.0881226" height="17.0731707"></rect>
                        <rect id="Rectangle-Copy-34" x="410.114943" y="126.341463" width="17.0881226" height="17.0731707"></rect>
                        <rect id="Rectangle-Copy-38" x="478.467433" y="126.341463" width="17.0881226" height="17.0731707"></rect>
                        <rect id="Rectangle-Copy-42" x="582.704981" y="233.04878" width="17.0881226" height="17.0731707"></rect>
                        <rect id="Rectangle-Copy-46" x="582.704981" y="282.560976" width="17.0881226" height="17.0731707"></rect>
                        <rect id="Rectangle-Copy-16" x="169.172414" y="24.7560976" width="17.0881226" height="17.0731707"></rect>
                        <rect id="Rectangle-Copy-24" x="169.172414" y="73.4146341" width="17.0881226" height="17.0731707"></rect>
                    </g>
                    <path d="M480.51955,64.9268293 L410.969349,64.9268293 C412.947017,60.4043902 417.463614,57.2439024 422.71903,57.2439024 C422.831842,57.2439024 422.944314,57.2453588 423.056428,57.2482536 C424.870621,47.055941 433.783957,39.3170732 444.506386,39.3170732 C453.686003,39.3170732 461.539682,44.9891254 464.748063,53.0167762 C465.117319,52.9894935 465.490306,52.9756098 465.866539,52.9756098 C473.100243,52.9756098 479.134177,58.1079405 480.51955,64.9268293 Z" id="Combined-Shape" fill="#FFFFFF"></path>
                    <path d="M445.488899,72.6097561 L375.938697,72.6097561 C377.916365,68.087317 382.432963,64.9268293 387.688378,64.9268293 C387.801191,64.9268293 387.913663,64.9282856 388.025777,64.9311804 C389.839969,54.7388678 398.753306,47 409.475735,47 C418.655352,47 426.50903,52.6720523 429.717411,60.699703 C430.086668,60.6724203 430.459655,60.6585366 430.835888,60.6585366 C438.069592,60.6585366 444.103525,65.7908673 445.488899,72.6097561 Z" id="Combined-Shape-Copy" fill="#FFFFFF"></path>
                    <path d="M661.868517,143.463415 L564.762452,143.463415 C567.559897,137.185592 573.830677,132.812036 581.117849,132.812036 C581.275515,132.812036 581.432705,132.814083 581.589394,132.818153 C584.124892,118.489377 596.582085,107.609756 611.567648,107.609756 C624.396993,107.609756 635.373218,115.583762 639.85722,126.869367 C640.37329,126.831011 640.894573,126.811493 641.420393,126.811493 C651.47749,126.811493 659.875222,133.95177 661.868517,143.463415 Z" id="Combined-Shape-Copy-3" fill="#FFFFFF"></path>
                    <path d="M689.150487,140.04878 L623.171697,140.04878 C625.125221,135.79839 629.331802,132.857908 634.206112,132.857908 C634.313488,132.857908 634.420539,132.859335 634.52725,132.862172 C636.254012,122.875449 644.73779,115.292683 654.943475,115.292683 C663.680701,115.292683 671.155889,120.850324 674.209649,128.716048 C674.56111,128.689315 674.916122,128.675712 675.274223,128.675712 C682.043037,128.675712 687.708146,133.536095 689.150487,140.04878 Z" id="Combined-Shape-Copy-4" fill="#FFFFFF"></path>
                </g>
            </g>
        </g>
    </g>
</svg>