<svg xmlns="http://www.w3.org/2000/svg" width="186.403" height="35.141" viewBox="0 0 186.403 35.141"><g transform="translate(-251.383 -85.957)"><path d="M11.307-20.152h3.883V0H11.307Zm-3.9-.205q.355,0,.725.027l.766.055V-17.1q-.273-.014-.533-.021t-.629-.007q-.916,0-1.121.506a4.231,4.231,0,0,0-.178,1.586v.273H9v2.748H6.439V0H2.557V-12.018H.383v-2.748H2.516v-.957a5.138,5.138,0,0,1,1.053-3.541Q4.512-20.357,7.41-20.357Zm18.2,17.609a3.088,3.088,0,0,0,2.625-1.217,5.661,5.661,0,0,0,.916-3.459,5.629,5.629,0,0,0-.916-3.452,3.1,3.1,0,0,0-2.625-1.21,3.114,3.114,0,0,0-2.632,1.21,5.6,5.6,0,0,0-.923,3.452,5.63,5.63,0,0,0,.923,3.459A3.107,3.107,0,0,0,25.607-2.748Zm7.629-4.676A8.639,8.639,0,0,1,31.35-1.812,6.932,6.932,0,0,1,25.621.52a6.932,6.932,0,0,1-5.729-2.331,8.639,8.639,0,0,1-1.887-5.612,8.7,8.7,0,0,1,1.887-5.592,6.885,6.885,0,0,1,5.729-2.365,6.885,6.885,0,0,1,5.729,2.365A8.7,8.7,0,0,1,33.236-7.424ZM43.053-14.9H47L49.273-4.17,51.6-14.9h4.061L51.338,0H47.332L44.994-10.855,42.629,0H38.582L34.4-14.9h4.184L40.906-4.211ZM56.273-11.99v-2.775h2.078v-4.156h3.855v4.156h2.42v2.775h-2.42v7.875a1.774,1.774,0,0,0,.232,1.142,2.559,2.559,0,0,0,1.422.226q.178,0,.376-.007t.39-.021V.137L62.781.205Q60.02.3,59.008-.752a2.849,2.849,0,0,1-.656-2.064V-11.99ZM73.814-2.748a3.088,3.088,0,0,0,2.625-1.217,5.661,5.661,0,0,0,.916-3.459,5.629,5.629,0,0,0-.916-3.452,3.1,3.1,0,0,0-2.625-1.21,3.114,3.114,0,0,0-2.632,1.21,5.6,5.6,0,0,0-.923,3.452,5.63,5.63,0,0,0,.923,3.459A3.107,3.107,0,0,0,73.814-2.748Zm7.629-4.676a8.639,8.639,0,0,1-1.887,5.612A6.932,6.932,0,0,1,73.828.52,6.932,6.932,0,0,1,68.1-1.812a8.639,8.639,0,0,1-1.887-5.612A8.7,8.7,0,0,1,68.1-13.016a6.885,6.885,0,0,1,5.729-2.365,6.885,6.885,0,0,1,5.729,2.365A8.7,8.7,0,0,1,81.443-7.424ZM90.631-3.2a3.01,3.01,0,0,0,2.311-1.032,4.779,4.779,0,0,0,.943-3.288,5.032,5.032,0,0,0-.9-3.227,2.927,2.927,0,0,0-2.4-1.107,2.828,2.828,0,0,0-2.83,1.928A6.836,6.836,0,0,0,87.35-7.4a5.772,5.772,0,0,0,.438,2.311A2.852,2.852,0,0,0,90.631-3.2ZM89.66-15.258a5.133,5.133,0,0,1,1.955.342,4.682,4.682,0,0,1,2.3,2.16V-14.9H97.7V-.766a7.917,7.917,0,0,1-.971,4.348Q95.061,6.1,90.33,6.1a8.719,8.719,0,0,1-4.662-1.121,4.136,4.136,0,0,1-2-3.35H87.91a1.755,1.755,0,0,0,.533.984,3.293,3.293,0,0,0,2.119.533,2.847,2.847,0,0,0,2.816-1.408A7.132,7.132,0,0,0,93.844-1.3v-.957a4.752,4.752,0,0,1-1.2,1.436,4.838,4.838,0,0,1-3.021.889,5.718,5.718,0,0,1-4.587-2.017A8.153,8.153,0,0,1,83.316-7.41,9.207,9.207,0,0,1,84.971-13,5.466,5.466,0,0,1,89.66-15.258Zm17.555,3.172a2.646,2.646,0,0,0-2.1.848,4.231,4.231,0,0,0-.937,2.3h6.057a3.392,3.392,0,0,0-.937-2.345A2.908,2.908,0,0,0,107.215-12.086Zm0-3.213a7.81,7.81,0,0,1,3.35.7,5.868,5.868,0,0,1,2.461,2.2,7.51,7.51,0,0,1,1.135,3.076,19.867,19.867,0,0,1,.123,2.953h-10.2a3.7,3.7,0,0,0,1.408,3.145,3.317,3.317,0,0,0,1.941.561,2.794,2.794,0,0,0,1.955-.684,3.247,3.247,0,0,0,.725-1.025h3.979a4.943,4.943,0,0,1-1.381,2.693A6.765,6.765,0,0,1,107.352.492a7.557,7.557,0,0,1-5.018-1.832Q100.16-3.172,100.16-7.3a8.285,8.285,0,0,1,1.962-5.934A6.708,6.708,0,0,1,107.215-15.3Zm8.162,3.309v-2.775h2.078v-4.156h3.855v4.156h2.42v2.775h-2.42v7.875a1.774,1.774,0,0,0,.232,1.142,2.559,2.559,0,0,0,1.422.226q.178,0,.376-.007t.39-.021V.137l-1.846.068q-2.762.1-3.773-.957a2.849,2.849,0,0,1-.656-2.064V-11.99Zm19.072-3.295a6.362,6.362,0,0,1,2.509.479,4.387,4.387,0,0,1,1.853,1.463,3.887,3.887,0,0,1,.752,1.716A21.128,21.128,0,0,1,139.7-8.75V0h-3.979V-9.064a3.987,3.987,0,0,0-.41-1.941,2.059,2.059,0,0,0-2.023-1.039,2.785,2.785,0,0,0-2.345,1.032,4.723,4.723,0,0,0-.8,2.946V0H126.26V-20.084h3.883v7.123a4.778,4.778,0,0,1,1.962-1.812A5.545,5.545,0,0,1,134.449-15.285Zm14.766,3.2a2.646,2.646,0,0,0-2.1.848,4.231,4.231,0,0,0-.937,2.3h6.057a3.392,3.392,0,0,0-.937-2.345A2.908,2.908,0,0,0,149.215-12.086Zm0-3.213a7.81,7.81,0,0,1,3.35.7,5.868,5.868,0,0,1,2.461,2.2,7.51,7.51,0,0,1,1.135,3.076,19.865,19.865,0,0,1,.123,2.953h-10.2a3.7,3.7,0,0,0,1.408,3.145,3.317,3.317,0,0,0,1.941.561,2.794,2.794,0,0,0,1.955-.684,3.247,3.247,0,0,0,.725-1.025h3.979a4.943,4.943,0,0,1-1.381,2.693A6.765,6.765,0,0,1,149.352.492a7.557,7.557,0,0,1-5.018-1.832Q142.16-3.172,142.16-7.3a8.285,8.285,0,0,1,1.962-5.934A6.708,6.708,0,0,1,149.215-15.3ZM167-15.258q.109,0,.185.007t.335.021v3.992q-.369-.041-.656-.055t-.465-.014a3.232,3.232,0,0,0-3.158,1.531,5.957,5.957,0,0,0-.451,2.652V0h-3.924V-14.9h3.719v2.6a8.238,8.238,0,0,1,1.572-2.037A4.28,4.28,0,0,1,167-15.258Z" transform="translate(251 115)" fill="#000964"/><g transform="translate(50.214 4.5)"><circle cx="9.286" cy="9.286" r="9.286" transform="translate(369 81.457)" fill="#502eff"/><text transform="translate(373.786 95.5)" fill="#fff" font-size="17" font-family="Helvetica-Bold, Helvetica" font-weight="700"><tspan x="0" y="0">x</tspan></text></g></g></svg>