<svg xmlns="http://www.w3.org/2000/svg" width="1008.553" height="783.695" viewBox="0 0 1008.553 783.695"><g transform="translate(-0.875)"><path d="M2.4,4.918H188.711c3.2,0,3.2-4.918,0-4.918H2.4C-.8,0-.8,4.918,2.4,4.918Z" transform="translate(113.909 759.514)" fill="#e8e8e8"/><path d="M2.336,4.918h240c3.2,0,3.2-4.918,0-4.918h-240C-.779,0-.779,4.918,2.336,4.918Z" transform="translate(174.708 740.252)" fill="#e8e8e8"/><path d="M2.4,4.918H128.956c3.2,0,3.2-4.918,0-4.918H2.4C-.8,0-.8,4.918,2.4,4.918Z" transform="translate(410.632 709.924)" fill="#e8e8e8"/><path d="M2.4,4.918H339.613c3.2,0,3.2-4.918,0-4.918H2.4C-.8,0-.8,4.918,2.4,4.918Z" transform="translate(518.994 778.777)" fill="#e8e8e8"/><path d="M2.4,4.918H176.579c3.2,0,3.2-4.918,0-4.918H2.4C-.8,0-.8,4.918,2.4,4.918Z" transform="translate(726.619 759.514)" fill="#e8e8e8"/><path d="M42.1,0A51.082,51.082,0,0,0,24.07,6.8a50.256,50.256,0,0,0-19.1,21.312C2.922,32.377-1.668,42.3.627,54.591c3.361,18.2,19.344,27.3,21.885,28.689C30.627,70.9,38.66,58.443,46.775,46.066Q44.316,23.074,42.1,0Z" transform="translate(227.975 167.706)" fill="#ec615b"/><path d="M0,19.508C11.967,13.033,23.853,6.557,35.82,0c2.623,3.279,7.541,10.574,7.459,20.41a28.855,28.855,0,0,1-.656,6.148Q21.23,22.992,0,19.508Z" transform="translate(276.144 192.788)" fill="#5222d0"/><path d="M0,1.885C1.475,21.148,2.869,40.492,4.344,59.755,9.59,59.427,14.836,59.017,20,58.689,18.279,39.1,16.558,19.59,14.836,0,9.836.656,4.918,1.23,0,1.885Z" transform="translate(147.782 266.969)" fill="#5222d0"/><path d="M0,1.393C.82,13.279,1.639,25.082,2.541,36.968c5.246-.492,10.492-.9,15.656-1.393C17.049,23.689,15.984,11.885,14.836,0,9.836.41,4.918.9,0,1.393Z" transform="translate(177.044 287.543)" fill="#ec615b"/><path d="M266.314,343.445q-121.968,11.189-243.854,22.3Q11.271,187.215,0,8.607L243.281,0q11.558,171.764,23.033,343.445Z" transform="translate(97.208 18.935)" fill="none" stroke="#161616" stroke-miterlimit="10" stroke-width="2"/><g transform="translate(112.515)"><path d="M.018,1.546C.919,8.022,1.9,14.5,2.8,20.973c.246,1.557,2.623.9,2.377-.656C4.28,13.841,3.3,7.366,2.395.891,2.149-.667-.228-.011.018,1.546Z" transform="translate(68.528 3.454)" fill="#e8e8e8"/><path d="M1.168,4.836c18.443-1.23,36.968-1.967,55.41-2.377a1.231,1.231,0,0,0,0-2.459Q28.791.615,1.168,2.377c-1.557.082-1.557,2.541,0,2.459Z" transform="translate(69.099)" fill="#e8e8e8"/><path d="M.017,1.168C.837,8.135,1.493,15.021,1.9,21.988c.082,1.557,2.541,1.557,2.459,0C3.952,15.021,3.3,8.053,2.476,1.168,2.23-.389-.229-.389.017,1.168Z" transform="translate(124.922 0.307)" fill="#e8e8e8"/><path d="M.008,1.168C.582,7.234,1.155,13.381,1.729,19.447a1.261,1.261,0,0,0,1.23,1.23c17.623.164,35.164-2.623,52.869-2.049,1.557.082,1.557-2.377,0-2.459C38.2,15.594,20.664,18.3,2.959,18.217l1.23,1.23C3.614,13.381,3.041,7.234,2.467,1.168,2.3-.389-.156-.389.008,1.168Z" transform="translate(70.341 3.586)" fill="#e8e8e8"/><path d="M.561,4.1c2.7,1.639,6.23.82,9.18.656L24.5,4.016c9.836-.492,19.59-1.066,29.426-1.557l-1.23-1.23c.246,5.328.492,10.656.738,16.066.082,1.557,2.541,1.557,2.459,0-.246-5.328-.492-10.656-.738-16.066A1.261,1.261,0,0,0,53.922,0C45.233.492,36.463.9,27.774,1.393c-4.344.246-8.689.492-13.115.656-3.443.164-9.836,1.8-12.869-.082C.479,1.148-.751,3.279.561,4.1Z" transform="translate(71.1 1.475)" fill="#e8e8e8"/><path d="M.032,2.911A105.667,105.667,0,0,1,2.573,18.157c.82-.082,1.639-.246,2.377-.328A34.495,34.495,0,0,1,5.114,4.55c-.82-.082-1.639-.246-2.377-.328.164,4.918.492,9.59,2.377,14.1.574,1.311,2.623.328,2.213-.984-1.393-5.246-2.7-10.41-1.311-15.82H3.639L5.852,16.272c.246,1.557,2.623.9,2.377-.656L6.016.862C5.852-.368,3.884-.2,3.639.862,2.163,6.681,3.475,12.337,4.95,17.993l2.213-.984C5.442,12.911,5.278,8.485,5.114,4.14c0-1.311-2.131-1.721-2.377-.328A36.446,36.446,0,0,0,2.573,18.4c.246,1.311,2.541,1.066,2.377-.328a116.949,116.949,0,0,0-2.623-15.9C2,.7-.3,1.354.032,2.911Z" transform="translate(71.546 3.155)" fill="#e8e8e8"/><path d="M2.639,6.511l2.7-4.426c-.738-.41-1.393-.82-2.131-1.23C2.147,3.232,1.163,5.609.1,7.986c-.492,1.148.984,2.7,1.967,1.475C3.7,7.413,5.262,5.282,6.9,3.232c-.656-.41-1.393-.82-2.049-1.23A24.666,24.666,0,0,1,2.229,7.577C1.491,8.724,3.294,10.2,4.2,9.052,5.426,7.495,6.655,5.937,7.967,4.38L6,2.9C4.36,6.757,2.721,10.527,1.081,14.38c-.492,1.148.984,2.7,1.967,1.475C6,12.167,9.032,8.4,11.983,4.708L10.016,3.232c-2.213,3.607-4.426,7.3-6.639,10.9a1.229,1.229,0,0,0,1.393,1.8,5.233,5.233,0,0,0,2.459-1.393c-.656-.41-1.393-.82-2.049-1.23a6.851,6.851,0,0,1-2.541,3.361c-1.23.9-.164,2.951,1.23,2.131a10.223,10.223,0,0,1,4.016-1.393L6.409,15.937C4.278,14.872,3.622,13.4,4.442,11.429A11.63,11.63,0,0,1,5.59,8.478C6.245,7.331,7.475,4.544,8.7,7c.9,1.8-2.869,11.885-3.361,5.656A13.079,13.079,0,0,1,5.917,7.9,16.422,16.422,0,0,1,7.311,4.626c.82-1.639,1.23-1.639,1.311,0C10.18,7.9,8.294,13.068,6.737,15.937a20.593,20.593,0,0,1,2.213.328,13.732,13.732,0,0,1-.41-6.8c.164-.9.984-5.246,1.885-3.852,1.885,2.7-1.23,8.853-2.541,11.23.738.246,1.557.41,2.3.656a21.986,21.986,0,0,1,.082-6.557c.246-1.475,1.148-6.23,2.7-6.393C15.18,4.3,10.917,14.38,9.934,15.855a20.593,20.593,0,0,1,2.213.328c-.738-3.689-.738-11.557,4.262-12.787-.492-.246-.984-.574-1.475-.82A15.425,15.425,0,0,1,11,16.1a19.138,19.138,0,0,1,2.049.574,13.663,13.663,0,0,1-.082-6.8c.328-1.23,2.049-6.393,3.689-5.984,1.148.246-.328,5-.656,6.066a16.979,16.979,0,0,1-4.344,6.885,19.137,19.137,0,0,1,2.049.574,12.674,12.674,0,0,1,5.82-13.935c-.574-.246-1.23-.492-1.8-.738,1.885,5-2.951,11.476-6.148,14.836a19.137,19.137,0,0,1,2.049.574,12.886,12.886,0,0,1,.164-7.049c.246-.738,2.7-6.312,3.852-5.9,1.639.574-1.148,5.574-1.639,6.312-.574,1.066-1.639,2.951-2.7,3.607-1.23.82-1.148.984-1.23-.82-.082-2.459,1.557-5.246,2.951-7.049.738-.984,1.967-2.541,3.115-2.951,1.311-.574,1.148-.738.984.984-.574,5.082-3.443,9.672-7.049,13.2a19.137,19.137,0,0,1,2.049.574,14.99,14.99,0,0,1,4.508-13.2c1.066-.984,2.3-1.639,2.7.41.164.82-.82,2.787-1.148,3.525a22.067,22.067,0,0,1-4.836,7.049h1.721c-1.475-1.721.41-5.492,1.311-7.131.41-.738,3.934-6.148,4.918-5.656,1.148.574-1.393,6.066-1.721,6.639a25.981,25.981,0,0,1-4.344,5.984c.738.328,1.393.574,2.131.9A16.6,16.6,0,0,1,27.311,3.314c-.656-.328-1.23-.738-1.885-1.066a18.867,18.867,0,0,1-5.82,14.18c.738.328,1.393.574,2.131.9a21.571,21.571,0,0,1,7.869-15l-1.967-.246c2.623,3.934-3.115,11.312-5.41,14.262.738.328,1.393.574,2.131.9a18.079,18.079,0,0,1,1.393-6.557c.492-1.311,2.541-5.82,4.016-6.148,1.967-.41-.082,3.361-.738,4.754a24.625,24.625,0,0,1-4.508,6.312c.656.41,1.393.82,2.049,1.23.738-5.082,2.787-11.8,8.115-13.689A18.91,18.91,0,0,0,33.131,2a22.24,22.24,0,0,1-7.213,14.1c.738.328,1.393.574,2.131.9A22.774,22.774,0,0,1,30.016,9.38c.738-1.557,2.7-5.656,4.508-5.984.9-.164,0,1.23-.328,2.131a25.661,25.661,0,0,1-1.8,3.689,29.557,29.557,0,0,1-4.836,6.23c.738.328,1.393.574,2.131.9A17.516,17.516,0,0,1,36.573,3.4C36,2.9,35.344,2.495,34.77,2c-.656,3.852-2.623,6.885-5.246,9.754-1.557,1.721-2.049,1.311-2.213-.984a6.837,6.837,0,0,1,4.836-7.049A18.909,18.909,0,0,0,30.59,2.577a26.934,26.934,0,0,1-4.344,13.443c.738.246,1.557.41,2.3.656A19.4,19.4,0,0,1,30.59,9.626c.738-1.475,2.623-5.164,4.262-5.574,2.377-.656,0,4.016-.574,5.164a25.265,25.265,0,0,1-4.508,6.148c.738.328,1.393.574,2.131.9A12.771,12.771,0,0,1,40.836,3.232a18.91,18.91,0,0,0-1.557-1.148,21.728,21.728,0,0,1-7.951,14.508c.738.328,1.393.574,2.131.9a19.217,19.217,0,0,1,8.2-13.771c-.574-.246-1.23-.492-1.8-.738,1.311,4.262-3.2,9.836-5.656,12.869.738.328,1.393.574,2.131.9.328-4.18,2.7-11.8,7.7-12.541L42.557,2.741a27.586,27.586,0,0,1-5.82,12.541c.738.328,1.393.574,2.131.9A19.371,19.371,0,0,1,44.524,3.314l-1.967-.246c1.885,3.443-1.967,9.508-3.689,12.541l2.213.984c.82-3.934,1.475-10.574,5.164-12.951a9.032,9.032,0,0,0-1.475-.164c2.049,2.3-1.885,10-2.787,12.3.82.246,1.557.41,2.377.656,1.148-4.18,2.213-8.279,3.361-12.459-.82-.082-1.639-.246-2.377-.328a30.114,30.114,0,0,1-1.721,11.394c.82.082,1.639.246,2.377.328.41-3.689,0-9.426,2.131-12.541a20.593,20.593,0,0,1-2.213-.328c1.148,4.016.738,7.869.164,12.049.82.082,1.639.246,2.377.328-.328-4.59-.656-9.262-.984-13.853-.738.328-1.393.574-2.131.9,3.115,3.2,1.885,7.377.492,11.066a20.592,20.592,0,0,0,2.213-.328c-.9-1.721-2.7-4.59-2.623-6.639-.82-1.311-.492-1.967,1.066-1.885a5.59,5.59,0,0,1,.656,4.1c.738-.328,1.393-.574,2.131-.9A10.6,10.6,0,0,1,46.9,2.413c-.574.492-1.23.9-1.8,1.393.328.9.656,1.885.984,2.787a20.592,20.592,0,0,1,2.213.328,12.2,12.2,0,0,1-.738-4.836A18.91,18.91,0,0,1,46,3.232c3.2,1.311.984,9.836.574,12.049a14.013,14.013,0,0,0,1.148-.9l-18.689.492a1.231,1.231,0,0,0,0,2.459,90.778,90.778,0,0,0,16.312-1.475c-.246-.82-.41-1.557-.656-2.377a103.909,103.909,0,0,1-19.344,3.361,1.231,1.231,0,0,0,0,2.459c6.393.246,12.623-1.967,19.017-1.721-.082-.82-.246-1.639-.328-2.377a34.463,34.463,0,0,1-15,1.557v2.459l17.705-1.721c-.082-.82-.246-1.639-.328-2.377a36.365,36.365,0,0,1-11.885,1.393V18.97a46.878,46.878,0,0,0,11.721-1.475,1.233,1.233,0,0,0-.656-2.377,65.743,65.743,0,0,1-13.853,1.475v2.459c5.574-.738,11.148-1.639,16.721-2.787,1.311-.246,1.066-2.541-.328-2.377a56.789,56.789,0,0,1-15.82-.246c-1.557-.246-2.213,2.131-.656,2.377a61.639,61.639,0,0,0,16.476.328c-.082-.82-.246-1.639-.328-2.377-5.328,1.066-10.656,2.049-16.066,2.7a1.23,1.23,0,0,0,0,2.459,66.638,66.638,0,0,0,14.508-1.557c-.246-.82-.41-1.557-.656-2.377a46,46,0,0,1-11.066,1.393,1.231,1.231,0,0,0,0,2.459,40.755,40.755,0,0,0,12.541-1.475c1.311-.41,1.066-2.541-.328-2.377L29.032,16.921a1.231,1.231,0,0,0,0,2.459,37.371,37.371,0,0,0,15.656-1.639,1.215,1.215,0,0,0-.328-2.377c-6.393-.246-12.623,1.967-19.017,1.721v2.459a103.148,103.148,0,0,0,20-3.443c1.557-.41.9-2.623-.656-2.377a84.234,84.234,0,0,1-15.656,1.393v2.459l18.689-.492a1.229,1.229,0,0,0,1.148-.9c.82-4.59,3.361-12.705-2.3-15.082-.82-.328-1.475.492-1.557,1.148a11.392,11.392,0,0,0,.82,5.492c.328.9,1.721,1.311,2.213.328a4.453,4.453,0,0,0-1.885-6.148,1.229,1.229,0,0,0-1.8,1.393A13.288,13.288,0,0,0,47.393,9.38c.738.9,2.049.082,2.131-.9.246-2.623-2.049-10.41-6.23-8.033-3.771,2.213,1.23,11.148,2.459,13.689.492,1.066,1.885.574,2.213-.328,1.8-4.672,2.623-9.59-1.148-13.443a1.254,1.254,0,0,0-2.131.9c.328,4.59.656,9.262.984,13.853.082,1.311,2.213,1.8,2.377.328.656-4.508,1.148-8.853-.164-13.361a1.234,1.234,0,0,0-2.213-.328c-2.541,3.607-2.049,9.59-2.459,13.771-.164,1.475,1.967,1.557,2.377.328a31.678,31.678,0,0,0,1.8-12.049,1.211,1.211,0,0,0-2.377-.328c-1.148,4.18-2.213,8.279-3.361,12.459a1.234,1.234,0,0,0,2.377.656c1.475-3.771,5.41-10.984,2.131-14.754a1.129,1.129,0,0,0-1.475-.164C40.18,4.626,39.36,11.265,38.377,16.1c-.246,1.311,1.557,2.213,2.213.984C42.8,13.068,46.737,6.593,44.278,2a1.289,1.289,0,0,0-1.967-.246,22.268,22.268,0,0,0-6.393,14.59,1.273,1.273,0,0,0,2.131.9A29.552,29.552,0,0,0,44.524,3.642a1.221,1.221,0,0,0-1.475-1.475c-6.148.9-9.1,9.59-9.508,14.918a1.273,1.273,0,0,0,2.131.9c3.2-3.852,7.951-9.918,6.312-15.246A1.22,1.22,0,0,0,40.18,2a21.8,21.8,0,0,0-9.426,15.82c-.164,1.148,1.393,1.475,2.131.9a24.324,24.324,0,0,0,8.607-16.23,1.18,1.18,0,0,0-1.557-1.148A15.2,15.2,0,0,0,29.2,16.757a1.281,1.281,0,0,0,2.131.9C33.213,15.773,43.049,2.413,36.9.937c-2.541-.656-5.41,3.279-6.639,4.918a22.873,22.873,0,0,0-4.344,11.394c-.164,1.311,1.721,1.557,2.3.656A28.345,28.345,0,0,0,32.967,3.232a1.206,1.206,0,0,0-1.557-1.148,8.581,8.581,0,0,0-6.23,6.721c-.574,2.131-1.148,6.148,1.148,7.541,2.213,1.393,4.016-1.066,5.246-2.541,2.623-3.033,4.754-6.312,5.41-10.328.164-.9-.82-2.131-1.8-1.393a20.14,20.14,0,0,0-8.115,15.082c-.082,1.066,1.393,1.557,2.131.9C31.164,16.1,41.655,3.15,36,1.019c-2.541-.984-5.246,3.115-6.393,4.754a24.174,24.174,0,0,0-4.18,11.967c-.082,1.148,1.393,1.557,2.131.9a24.58,24.58,0,0,0,7.951-15.82A1.215,1.215,0,0,0,33.95,1.675c-6.23,2.213-8.934,9.344-9.836,15.41-.164,1.148,1.148,2.213,2.049,1.23C28.131,16.265,37.475,3.4,31.737,1.757c-2.623-.738-5.492,3.771-6.639,5.574a21.466,21.466,0,0,0-3.279,10.9,1.273,1.273,0,0,0,2.131.9c3.115-3.852,9.18-12.049,5.82-17.213A1.289,1.289,0,0,0,27.8,1.675a24.269,24.269,0,0,0-8.607,16.8c-.082,1.066,1.393,1.557,2.131.9A21.584,21.584,0,0,0,27.8,3.478a1.27,1.27,0,0,0-1.885-1.066,19.148,19.148,0,0,0-9.18,16.394,1.281,1.281,0,0,0,2.131.9A26.082,26.082,0,0,0,25.59,8.068c.492-1.885.82-5.574-2.213-5.41-3.2.164-6.557,5.738-7.7,8.2-1.23,2.787-2.541,6.393-.328,8.934a1.264,1.264,0,0,0,1.721,0A22.792,22.792,0,0,0,23.7,8.068c.41-2.049.574-5.492-2.377-5.492-3.115,0-6.475,4.59-7.7,6.967a16.972,16.972,0,0,0-1.8,11.312,1.239,1.239,0,0,0,2.049.574,26.76,26.76,0,0,0,7.541-13.2c.492-2.213,1.148-5.984-2.131-5.9-5.656.164-13.443,14.344-8.115,18.033a1.3,1.3,0,0,0,1.23,0C15.262,18.97,25.426,5.2,19.2,3.4,16.573,2.577,13.622,7,12.639,8.888a15.571,15.571,0,0,0-1.393,11.148,1.239,1.239,0,0,0,2.049.574c3.852-4.1,9.016-11.394,6.8-17.213a1.248,1.248,0,0,0-1.8-.738A15.209,15.209,0,0,0,11.327,19.38a1.273,1.273,0,0,0,2.049.574,21.127,21.127,0,0,0,5.9-11.721c.328-1.967,1.066-5.574-1.475-6.393-2.7-.82-5.246,3.771-6.148,5.738a17.025,17.025,0,0,0-.984,11.23,1.239,1.239,0,0,0,2.049.574,17.778,17.778,0,0,0,4.59-15.9,1.209,1.209,0,0,0-1.475-.82C9.442,4.216,8.786,13.232,9.852,18.478a1.234,1.234,0,0,0,2.213.328A20.585,20.585,0,0,0,15.917,8.642c.164-1.8.656-5.574-1.8-6.23S10.18,5.363,9.442,7.085A22.748,22.748,0,0,0,7.8,19.216c.164,1.148,1.639,1.8,2.3.656,2.541-4.426,4.672-11.066,2.377-15.984a.991.991,0,0,0-1.066-.574C5.344,3.4,5.672,14.954,6.737,18.806a1.234,1.234,0,0,0,2.213.328c2.3-4.016,3.771-9.918,1.8-14.426-1.393-3.2-3.934-1.721-5.492.656C3.049,8.806,1.655,15.282,3.868,19.052,5.59,22,7.8,19.79,9.032,17.577c1.475-2.7,3.852-9.344,1.393-12.213C8.213,2.822,5.344,6.347,4.114,8.15,2.229,11.019.426,16.265,2.8,19.38a3.391,3.391,0,0,0,6.066-.82c.41-.984-.656-1.639-1.475-1.475A11.44,11.44,0,0,0,2.8,18.724c.41.738.82,1.393,1.23,2.131a10.809,10.809,0,0,0,3.689-4.836c.492-1.23-1.23-1.885-2.049-1.23-.492.246-.9.492-1.393.738.492.574.9,1.23,1.393,1.8,2.213-3.607,4.426-7.3,6.639-10.9.738-1.148-1.066-2.623-1.967-1.475C7.393,8.642,4.36,12.413,1.409,16.1l1.967,1.475C5.016,13.724,6.655,9.954,8.294,6.1c.492-1.148-.984-2.7-1.967-1.475C5.1,6.183,3.868,7.741,2.557,9.3l1.967,1.475A28.013,28.013,0,0,0,7.393,4.626C7.721,3.478,6.081,2.413,5.344,3.4,3.7,5.445,2.147,7.577.508,9.626L2.475,11.1C3.54,8.724,4.524,6.347,5.59,3.97c.656-1.393-1.311-2.623-2.131-1.23L.753,7.167c-1.066-.492,1.066.738,1.885-.656Z" transform="translate(75.251 3.899)" fill="#e8e8e8"/><path d="M2.9,1.21c0,2.787.082,5.656.164,8.443.082,2.049.984,6.393-.328,7.951-.82.984.246,2.7,1.475,1.967a7.194,7.194,0,0,0,1.23-.984,1.273,1.273,0,0,0-.574-2.049A6.73,6.73,0,0,0,.855,16.7c-1.475.492-.9,2.869.656,2.377.9-.082,1.8-.082,2.7-.164a19.137,19.137,0,0,0-.574-2.049,4.946,4.946,0,0,0-.656.656l1.475,1.967c1.8-2.131,1.311-3.607,1.148-6.475-.164-3.852-.246-7.787-.246-11.639A1.234,1.234,0,1,0,2.9,1.21Z" transform="translate(119.494 2.233)" fill="#e8e8e8"/><path d="M1.168,4.782Q51.7,1.954,102.4,2.569a1.231,1.231,0,0,0,0-2.459Q51.742-.5,1.168,2.323C-.389,2.4-.389,4.864,1.168,4.782Z" transform="translate(0 70.055)" fill="#e8e8e8"/><path d="M1.2,6.312A695.649,695.649,0,0,1,73.9,2.459,1.231,1.231,0,0,0,73.9,0,673.976,673.976,0,0,0,1.2,3.852C-.358,4.016-.44,6.475,1.2,6.312Z" transform="translate(4.313 90.984)" fill="#e8e8e8"/><path d="M1.168,7.951Q49.611,2.91,98.3,2.459A1.231,1.231,0,0,0,98.3,0Q49.611.369,1.168,5.492C-.389,5.656-.389,8.115,1.168,7.951Z" transform="translate(6.557 131.231)" fill="#e8e8e8"/><path d="M26.4,85.133C10.5,78.985,1.074,61.362,2.632,44.641,4.271,27.673,16.894,13.165,32.058,6.362,42.468,1.69,53.943.706,64.189,6.2A52.918,52.918,0,0,1,83.944,24.723c10.082,16.066,9.344,35.492-1.311,51.23-6.394,9.426-18.443,12.131-29.017,13.771-10.492,1.639-21.558,1.066-30.41-5.41-1.311-.9-2.541,1.23-1.23,2.131,8.2,5.984,18.279,7.213,28.115,6.23,9.754-.984,21.312-3.115,29.181-9.344,7.787-6.148,12.459-17.787,14.1-27.3,1.557-9.1-.164-18.279-4.016-26.64C80.747,10.788,60.911-4.13,39.845,1.034,21.648,5.46,5.582,20.132,1.156,38.575-3.6,58.165,6.648,80.051,25.665,87.428c1.557.656,2.213-1.721.738-2.3Z" transform="translate(113.947 166.181)" fill="#e8e8e8"/><path d="M0,1.168C.986,16.332,1.969,31.5,3.035,46.66c.082,1.557,2.541,1.557,2.459,0C4.51,31.5,3.527,16.332,2.461,1.168,2.379-.389-.08-.389,0,1.168Z" transform="translate(157.643 166.456)" fill="#e8e8e8"/><path d="M1.842,23.791q18.689-10.2,36.886-21.476C40.04,1.5,38.81-.635,37.5.184Q19.425,11.5.613,21.66A1.23,1.23,0,0,0,1.842,23.791Z" transform="translate(161.13 190.801)" fill="#e8e8e8"/><path d="M1.168,2.459c14.1,0,28.033,3.361,41.886,5.738,1.557.246,2.213-2.131.656-2.377C29.693,3.443,15.512,0,1.168,0A1.231,1.231,0,0,0,1.168,2.459Z" transform="translate(162.296 212.543)" fill="#e8e8e8"/><path d="M23.873.6C16,13.63,8.135,26.581.184,39.614a1.23,1.23,0,0,0,2.131,1.23C10.184,27.81,18.053,14.859,26,1.826,26.824.515,24.693-.8,23.873.6Z" transform="translate(137.46 212.765)" fill="#e8e8e8"/><path d="M1.168,11.975Q54.652,7.918,107.89,2.467c1.557-.164,1.557-2.623,0-2.459Q54.529,5.418,1.168,9.516C-.389,9.68-.389,12.139,1.168,11.975Z" transform="translate(20.574 317.536)" fill="#e8e8e8"/><path d="M.008,1.168c1.311,18.853,2.7,37.787,4.016,56.64.082,1.557,2.541,1.557,2.459,0-1.311-18.853-2.7-37.787-4.016-56.64C2.3-.389-.156-.389.008,1.168Z" transform="translate(33.865 267.932)" fill="#e8e8e8"/><path d="M1.523,3.359a62.415,62.415,0,0,1,14.1-.82l-1.23-1.23c1.23,19.18,3.033,38.279,5.246,57.3.164,1.557,2.623,1.557,2.459,0-2.3-19.017-4.016-38.2-5.246-57.3A1.261,1.261,0,0,0,15.621.08,68.358,68.358,0,0,0,.867.982C-.69,1.309.048,3.686,1.523,3.359Z" transform="translate(34.727 265.988)" fill="#e8e8e8"/><path d="M.018,1.546A270.349,270.349,0,0,1,3.46,36.055c.082,1.557,2.541,1.557,2.459,0A266.144,266.144,0,0,0,2.395.891C2.149-.667-.228-.011.018,1.546Z" transform="translate(62.052 286.981)" fill="#e8e8e8"/><path d="M1.168,3.367a100.977,100.977,0,0,0,14.1-.9l-1.23-1.23c1.148,11.394,2.377,22.705,3.525,34.1.164,1.557,2.623,1.557,2.459,0-1.148-11.394-2.377-22.705-3.525-34.1C16.414.662,16-.076,15.267.006a116.289,116.289,0,0,1-14.1.9A1.231,1.231,0,0,0,1.168,3.367Z" transform="translate(63.853 286.389)" fill="#e8e8e8"/><path d="M.008,1.168C1.975,18.873,3.2,36.578,3.7,54.447,3.778,56,6.237,56,6.155,54.447Q5.295,27.767,2.467,1.168C2.3-.389-.156-.389.008,1.168Z" transform="translate(91.243 267.769)" fill="#e8e8e8"/><path d="M1.178,2.541c2.623.164,5.328.246,7.951.41,3.689.164,3.771.246,3.852,3.934.246,5.328.492,10.574.82,15.9a267.411,267.411,0,0,0,3.771,30.246c.328,1.557,2.623.9,2.377-.656a285.938,285.938,0,0,1-4.18-38.361c-.164-2.951-.246-5.82-.41-8.771-.082-1.148.082-2.869-.82-3.852-.984-.984-2.7-.82-3.934-.9C7.408.328,4.293.164,1.1,0-.379,0-.379,2.459,1.178,2.541Z" transform="translate(91.302 267.379)" fill="#e8e8e8"/><path d="M1.23,14.445A829.124,829.124,0,0,0,95.575,2.4c1.557-.328.9-2.623-.656-2.377A819.988,819.988,0,0,1,1.23,11.986C-.41,12.068-.41,14.527,1.23,14.445Z" transform="translate(123.136 332.525)" fill="#e8e8e8"/><path d="M1.168,6.647c13.443-1.393,26.967-2.787,40.41-4.18,1.557-.164,1.557-2.623,0-2.459C28.135,1.4,14.611,2.795,1.168,4.188c-1.557.164-1.557,2.623,0,2.459Z" transform="translate(171.395 324.667)" fill="#e8e8e8"/><path d="M1.23,3.2c6.148-.246,12.377-.492,18.525-.738,1.557-.082,1.557-2.541,0-2.459C13.607.248,7.377.494,1.23.74-.41.822-.41,3.281,1.23,3.2Z" transform="translate(194.284 311.722)" fill="#e8e8e8"/><path d="M.089,1.487A36.2,36.2,0,0,1,2.056,15.34c-.082,1.557,2.377,1.557,2.459,0A38,38,0,0,0,2.466.832C1.892-.644-.485.012.089,1.487Z" transform="translate(130.507 37.775)" fill="#e8e8e8"/><path d="M1.168,6.969Q34.98,3.527,68.874,2.461c1.557-.082,1.557-2.541,0-2.459C46.25.74,23.627,2.215,1.168,4.51-.389,4.674-.389,7.133,1.168,6.969Z" transform="translate(131.476 32.539)" fill="#e8e8e8"/><path d="M1.168,7.379C23.627,5.74,46,4.1,68.464,2.461c1.557-.082,1.557-2.541,0-2.459C46,1.641,23.627,3.281,1.168,4.92-.389,5-.389,7.461,1.168,7.379Z" transform="translate(133.854 47.048)" fill="#e8e8e8"/><path d="M.018,1.546C.756,6.628,1.493,11.628,2.231,16.71c.246,1.557,2.623.9,2.377-.656C3.87,10.973,3.133,5.973,2.395.891,2.149-.667-.228-.011.018,1.546Z" transform="translate(200.66 33.864)" fill="#e8e8e8"/><path d="M0,1.168A87.938,87.938,0,0,0,.656,10.43c.246,1.557,2.7,1.557,2.459,0a69.4,69.4,0,0,1-.656-9.262A1.231,1.231,0,0,0,0,1.168Z" transform="translate(597.075 100.964)" fill="#e8e8e8"/><path d="M1.168,2.459h159.1a1.231,1.231,0,0,0,0-2.459H1.168a1.231,1.231,0,0,0,0,2.459Z" transform="translate(597.71 100.902)" fill="#e8e8e8"/><path d="M0,1.23v5.41a1.231,1.231,0,0,0,2.459,0V1.23A1.23,1.23,0,0,0,0,1.23Z" transform="translate(756.502 101.886)" fill="#e8e8e8"/><path d="M1.23,2.459H158.28a1.231,1.231,0,0,0,0-2.459H1.23a1.23,1.23,0,0,0,0,2.459Z" transform="translate(599.124 109.837)" fill="#e8e8e8"/><path d="M.032,1.546C2.081,10.809,3.8,20.153,5.2,29.5c.246,1.557,2.623.9,2.377-.656C6.1,19.5,4.376,10.153,2.409.891A1.233,1.233,0,0,0,.032,1.546Z" transform="translate(600.075 72.307)" fill="#e8e8e8"/><path d="M1.168,2.461c10.738.328,21.967,1.639,32.705.328,1.557-.164,1.557-2.623,0-2.459C23.135,1.641,11.906.33,1.168,0c-1.557-.082-1.557,2.377,0,2.459Z" transform="translate(600.415 71.228)" fill="#e8e8e8"/><path d="M3.369,1.168C2.221,10.021,1.155,18.873.008,27.808c-.164,1.557,2.3,1.557,2.459,0C3.614,18.955,4.68,10.1,5.828,1.168,5.991-.389,3.532-.389,3.369,1.168Z" transform="translate(629.69 73.341)" fill="#e8e8e8"/><path d="M12.459,22.546c-1.639-.738-3.607-1.475-4.836-2.787-2.131-2.131-1.967-5-2.3-7.787C4.836,8.283,2.787,5,2.541,1.234c-.656.328-1.23.738-1.885,1.066C8.279,7.218,15,14.185,14.754,23.857c-.082,1.557,2.377,1.557,2.459,0C17.541,13.283,10.246,5.578,1.885.168A1.287,1.287,0,0,0,0,1.234,24.534,24.534,0,0,0,1.557,7.545C2.623,10.5,2.623,13.365,3.2,16.4c.9,4.508,4.016,6.475,7.951,8.279,1.475.574,2.7-1.475,1.311-2.131Z" transform="translate(601.337 48.439)" fill="#e8e8e8"/><path d="M2.486,32.453c-.9-6.23,3.2-12.213,5.492-17.705,1.8-4.344,3.115-8.771,2.869-13.525-.82.082-1.639.246-2.377.328,3.033,14.18,6.8,27.623.328,41.558-.656,1.393,1.475,2.7,2.131,1.23a43.565,43.565,0,0,0,4.18-20.328C14.7,16.223,12.486,8.519,10.847.9a1.21,1.21,0,0,0-2.377.328C8.962,12.617-1.53,21.8.191,33.109c.164,1.557,2.541.9,2.3-.656Z" transform="translate(613.687 28.039)" fill="#e8e8e8"/><path d="M0,1.23C.984,31.066,1.311,60.82.738,90.656a1.231,1.231,0,0,0,2.459,0Q3.934,45.9,2.459,1.23A1.23,1.23,0,0,0,0,1.23Z" transform="translate(656.255 11.803)" fill="#e8e8e8"/><path d="M2.144,4.191c3.525-2.951,9.508-1.639,13.443-.41,1.475.492,2.131-1.885.656-2.377C11.243-.154,4.685-1.137.423,2.469-.807,3.453.915,5.174,2.144,4.191Z" transform="translate(655.996 9.252)" fill="#e8e8e8"/><path d="M0,1.23C.164,30.656.328,60,.492,89.427a1.231,1.231,0,0,0,2.459,0C2.787,60,2.623,30.656,2.459,1.23A1.23,1.23,0,0,0,0,1.23Z" transform="translate(670.6 11.803)" fill="#e8e8e8"/><path d="M2.144,4.286a8.481,8.481,0,0,1,11.148.41c1.148,1.066,2.869-.656,1.721-1.721a11.008,11.008,0,0,0-14.59-.41c-1.23.984.492,2.7,1.721,1.721Z" transform="translate(657.799 28.583)" fill="#e8e8e8"/><path d="M2.171,4.845a9.887,9.887,0,0,1,12.541-.328c1.311.984,2.459-1.23,1.23-2.131A12.465,12.465,0,0,0,.368,3.124C-.78,4.189,1.023,5.911,2.171,4.845Z" transform="translate(656.707 18.598)" fill="#e8e8e8"/><path d="M1.23,2.379a44.578,44.578,0,0,1,10.9,1.311,14.013,14.013,0,0,0-.9-1.148c.492,22.131.246,44.181-.9,66.312-.082,1.557,2.377,1.557,2.459,0,1.148-22.049,1.393-44.181.9-66.312a1.229,1.229,0,0,0-.9-1.148A45.982,45.982,0,0,0,1.23,0a1.189,1.189,0,1,0,0,2.377Z" transform="translate(671.911 31.72)" fill="#e8e8e8"/><path d="M1.79,4.162a9.865,9.865,0,0,1,10.574-.246,1.23,1.23,0,0,0,1.23-2.131A12.093,12.093,0,0,0,.561,2.031C-.751,2.85.479,4.982,1.79,4.162Z" transform="translate(671.924 53.216)" fill="#e8e8e8"/><path d="M1.842,3.548a11.015,11.015,0,0,1,9.1-.246c1.475.574,2.7-1.475,1.23-2.131A13.581,13.581,0,0,0,.613,1.417C-.78,2.155.449,4.286,1.842,3.548Z" transform="translate(671.462 42.108)" fill="#e8e8e8"/><path d="M2.87,11.535c0-1.393-.9-6.475-.082-7.459,1.148-1.393,7.459-.9,9.1-.984,5.656-.328,11.394-.574,17.049-.656,11.394-.164,22.787.246,34.1,1.148L61.8,2.355A72.072,72.072,0,0,1,62.46,13.5a1.231,1.231,0,0,0,2.459,0,83.934,83.934,0,0,0-.656-11.148,1.261,1.261,0,0,0-1.23-1.23,381.955,381.955,0,0,0-42.213-.9c-3.279.082-6.475.246-9.754.492-2.377.164-6.8-.328-9.016.738C-1.147,2.929.329,8.912.411,11.617a1.232,1.232,0,0,0,2.459-.082Z" transform="translate(688.14 89.285)" fill="#e8e8e8"/><path d="M3.641,10c-.164-.9-.984-3.607-.82-4.508C3.4,3.033,5.772,3.607,7.576,3.607c2.951-.082,5.984-.082,8.934-.164,6.23-.082,12.459-.246,18.771-.328,5.984-.082,11.967-.246,17.951-.328,3.279-.082,6.557-.082,9.754-.164,2.3,0,3.607-.82,4.344,2.131a15.427,15.427,0,0,1,0,4.344c-.082,1.557,2.377,1.557,2.459,0,.082-2.131.738-6.312-.984-8.115C67.248-.574,64.052.164,62.166.246L34.461.738,7.576,1.23c-1.8,0-5.656-.738-6.967.9-1.557,1.885.328,6.557.656,8.607.328,1.475,2.7.82,2.377-.738Z" transform="translate(695.811 79.591)" fill="#e8e8e8"/><path d="M1.168,4.2c3.689.082,7.459.164,11.148-.082,1.8-.164,3.607-.82,3.443-2.951-.164-1.557-2.623-1.557-2.459,0,.082.9-11.066.656-12.131.574C-.389,1.66-.389,4.119,1.168,4.2Z" transform="translate(749.514 88.587)" fill="#e8e8e8"/><path d="M3.08,9.448a29.855,29.855,0,0,1-.328-4.672c.164-1.639-.246-1.885,1.639-2.131,2.623-.328,5.984.574,8.607.738,5.492.41,11.066.656,16.558.738s11.066.082,16.558-.164c2.459-.082,5.41-.738,7.869-.41a1.856,1.856,0,0,1,2.623.9A1.879,1.879,0,0,1,57.753,6.5c.246.656.328,1.475.574,2.213.574,1.475,2.951.82,2.377-.656-.738-1.8-.246-4.508-1.721-6.066-1.311-1.393-3.2-1.066-5-.984-8.115.41-16.312.656-24.426.574C21.687,1.415,13.818,1.006,5.949.268,4.31.1,1.769-.552.621,1.088-.69,3.055.457,7.235.621,9.366c.164,1.639,2.623,1.639,2.459.082Z" transform="translate(703.585 71.864)" fill="#e8e8e8"/><path d="M0,1.168V37.644a1.231,1.231,0,0,0,2.459,0V1.168A1.231,1.231,0,0,0,0,1.168Z" transform="translate(769.535 161.292)" fill="#e8e8e8"/><path d="M1.168,2.459H65.1A1.231,1.231,0,0,0,65.1,0H1.168A1.231,1.231,0,0,0,1.168,2.459Z" transform="translate(770.416 160.001)" fill="#e8e8e8"/><path d="M0,1.168V37.644a1.231,1.231,0,0,0,2.459,0V1.168A1.231,1.231,0,0,0,0,1.168Z" transform="translate(834.371 160.473)" fill="#e8e8e8"/><path d="M1.168,2.459H65.1A1.231,1.231,0,0,0,65.1,0H1.168A1.231,1.231,0,0,0,1.168,2.459Z" transform="translate(769.596 198.526)" fill="#e8e8e8"/><path d="M2.541,13.369a22.162,22.162,0,0,1,.738-6.148A8.534,8.534,0,0,1,4.426,4.27c.246-.82.82-1.066,1.8-.738C7.541,2.959,8.2,3.369,8.279,4.844c.984,3.443,1.148,7.377,1.639,10.984.246,1.557,2.623.9,2.377-.656-.492-3.607-.656-7.459-1.639-10.984C10.164,2.221,8.689.172,6.475.008.984-.32,0,9.68,0,13.369c.164,1.557,2.623,1.557,2.541,0Z" transform="translate(796.092 146.633)" fill="#e8e8e8"/><path d="M0,1.168V28.217a1.231,1.231,0,0,0,2.459,0V1.168A1.231,1.231,0,0,0,0,1.168Z" transform="translate(773.551 166.62)" fill="#e8e8e8"/><path d="M1.168,2.459H56.906a1.231,1.231,0,0,0,0-2.459H1.168A1.231,1.231,0,0,0,1.168,2.459Z" transform="translate(774.924 165.329)" fill="#e8e8e8"/><path d="M0,1.168V29.857a1.231,1.231,0,0,0,2.459,0V1.168A1.231,1.231,0,0,0,0,1.168Z" transform="translate(830.273 165.801)" fill="#e8e8e8"/><path d="M1.168,2.459H54.447a1.231,1.231,0,0,0,0-2.459H1.168A1.231,1.231,0,0,0,1.168,2.459Z" transform="translate(774.105 193.608)" fill="#e8e8e8"/><path d="M2.627,13.57c1.8-2.623,3.443-3.2,4.836-1.885.246.164.41.328.656.492A14.244,14.244,0,0,0,9.676,13a4.54,4.54,0,0,0,3.115-.164,2.839,2.839,0,0,0,1.639-1.721c.41-1.311-.574-1.557-.656-2.7-.41-.492-.246-.984.492-1.639.164-1.885,1.311-2.3,3.279-1.148a8.43,8.43,0,0,0,1.393.082c1.475-.246,1.639-.738,2.7-1.639,3.443-2.787,7.3-1.393,8.2,3.033.082.574.492,4.344-.164,4.754-.656-.82-1.311-1.557-1.967-2.377a5.9,5.9,0,0,1,4.59,3.279,1.264,1.264,0,0,0,2.131,0c1.639-1.721,3.279-1.8,4.918-.164l1.721-1.721c-.656-.574-1.23-1.148-1.885-1.721-2.131-1.8-1.967-3.852.574-6.23a4.417,4.417,0,0,1,3.771,6.557c-1.885,3.689-6.393,4.18-10.082,3.852v2.459c5.328.328,10.738.656,16.066.984,1.557.082,1.557-2.377,0-2.459-5.328-.328-10.738-.656-16.066-.984-1.557-.082-1.557,2.3,0,2.459,4.262.41,8.934-.41,11.639-4.18,2.131-3.033,1.967-7.623-1.148-10a5.869,5.869,0,0,0-7.951.9c-2.951,3.689.492,7.7,3.279,10.164,1.148,1.066,2.869-.574,1.721-1.721a5.557,5.557,0,0,0-8.771.656h2.131c-2.049-3.361-5.9-5.82-9.754-3.771-2.951,1.639-4.016,5.9-1.311,8.361,2.787,2.541,6.8.574,8.279-2.3C33.2,10.619,32.873,5.455,30.5,2.5a6.847,6.847,0,0,0-9.508-1.066C18.939,3,20.168,3.242,16.726,3a8.82,8.82,0,0,0-3.279,0,4.389,4.389,0,0,0-2.951,2.3A3.128,3.128,0,0,0,10.332,8c.082.328.984,1.066.9,1.311-.328,1.8-5.082-1.475-5.9-1.639C1.644,7.095-.815,11.029.25,14.226c.492,1.475,2.869.9,2.377-.656Z" transform="translate(774.94 171.595)" fill="#e8e8e8"/><path d="M0,1.168v28.2a1.231,1.231,0,0,0,2.459,0V1.168A1.231,1.231,0,0,0,0,1.168Z" transform="translate(847.814 114.735)" fill="#e8e8e8"/><path d="M1.23,2.459H46.476a1.231,1.231,0,0,0,0-2.459H1.23A1.23,1.23,0,0,0,1.23,2.459Z" transform="translate(849.208 113.28)" fill="#e8e8e8"/><path d="M1.168,2.459H46.414a1.231,1.231,0,0,0,0-2.459H1.168A1.231,1.231,0,0,0,1.168,2.459Z" transform="translate(848.531 143.608)" fill="#e8e8e8"/><path d="M0,1.23V30.164a1.231,1.231,0,0,0,2.459,0V1.23A1.23,1.23,0,0,0,0,1.23Z" transform="translate(894.454 114.345)" fill="#e8e8e8"/><path d="M0,1.23v26.8a1.231,1.231,0,0,0,2.459,0V1.23A1.23,1.23,0,0,0,0,1.23Z" transform="translate(850.601 115.739)" fill="#e8e8e8"/><path d="M1.23,2.459h43.2a1.231,1.231,0,0,0,0-2.459H1.23A1.23,1.23,0,0,0,1.23,2.459Z" transform="translate(850.273 141.477)" fill="#e8e8e8"/><path d="M1.168,2.459h41.8a1.231,1.231,0,0,0,0-2.459H1.168A1.231,1.231,0,0,0,1.168,2.459Z" transform="translate(850.99 115.001)" fill="#e8e8e8"/><path d="M0,1.168V26.906a1.231,1.231,0,0,0,2.459,0V1.168A1.231,1.231,0,0,0,0,1.168Z" transform="translate(893.388 115.39)" fill="#e8e8e8"/><path d="M1.879,5.682C8.682,2.4,16.387.846,23.272,4.863A1.23,1.23,0,0,0,24.5,2.731C16.879-1.777,8.272-.137.649,3.551-.826,4.207.485,6.338,1.879,5.682Z" transform="translate(858.231 131.778)" fill="#e8e8e8"/><path d="M3.432,11.56c-1.475-1.8,2.3-2.377,2.787-3.361.41-.738-.164-3.033.082-2.951A1.245,1.245,0,0,0,7.859,4.1c-.082-3.852,4.1,2.3,3.934,2.049a4.618,4.618,0,0,0,1.8,1.475c1.148.492,3.607-.82,4.262-.328a1.239,1.239,0,0,0,2.049-.574,14.988,14.988,0,0,1,2.049-.656,1.273,1.273,0,0,0,2.131.9c2.213,1.721,2.541,3.115.9,4.1-1.23,1.066.574,2.787,1.721,1.721,2.131-1.8,3.607-4.918,1.639-7.459a3.807,3.807,0,0,0-6.066-.082c.738.328,1.393.574,2.131.9a3,3,0,0,0-2.869-3.443c-2.131-.164-3.361,1.639-4.016,3.443a19.137,19.137,0,0,0,2.049-.574c-1.393-1.148-1.639-.656-3.2-.738C12.2,4.674,13.432,2.052,10.728.494S5.4,1.314,5.4,4.1A18.91,18.91,0,0,1,6.957,2.953c-1.23-.246-2.7-.328-3.525.738-.9,1.148.492,2.049.164,2.869C3.1,7.871.727,7.461.154,9.183-.42,10.822.727,12.3,1.711,13.445s2.7-.656,1.721-1.885Z" transform="translate(856.677 122.458)" fill="#e8e8e8"/><path d="M3.036,8.643a5.079,5.079,0,0,1-.492-3.279c.082-.738.738-3.115,1.885-2.787.82.246,1.639,2.377,1.8,3.115a9.088,9.088,0,0,1,.328,3.934c-.164,1.557,2.3,1.557,2.459,0A10.531,10.531,0,0,0,7.872,3.315C7.052,1.676,5.495-.538,3.364.118,1.724.61.659,2.659.249,4.217A8.187,8.187,0,0,0,.9,9.954c.738,1.393,2.787.164,2.131-1.311Z" transform="translate(866.91 103.817)" fill="#e8e8e8"/><path d="M0,1.23V38.853a1.231,1.231,0,0,0,2.459,0V1.23A1.23,1.23,0,0,0,0,1.23Z" transform="translate(851.421 156.886)" fill="#e8e8e8"/><path d="M1.23,2.459H39.345a1.231,1.231,0,0,0,0-2.459H1.23A1.23,1.23,0,0,0,1.23,2.459Z" transform="translate(851.421 154.755)" fill="#e8e8e8"/><path d="M0,1.168V40.84a1.231,1.231,0,0,0,2.459,0V1.168A1.231,1.231,0,0,0,0,1.168Z" transform="translate(889.536 154.817)" fill="#e8e8e8"/><path d="M1.168,2.459H37.234a1.231,1.231,0,0,0,0-2.459H1.168A1.231,1.231,0,0,0,1.168,2.459Z" transform="translate(852.466 196.067)" fill="#e8e8e8"/><path d="M.069,1.168C-.5,5.922,2.528,11.086,7.61,11.66c5.328.574,9.262-3.525,9.1-8.689-.082-1.557-2.541-1.557-2.459,0,.164,3.852-2.787,6.967-6.8,6.148C3.758,8.381,2.2,4.611,2.528,1.168,2.692-.389.233-.389.069,1.168Z" transform="translate(864.794 169.489)" fill="#e8e8e8"/><path d="M6.641,1.168c-.164,1.148.574,2.049.246,3.115C6.4,5.922,4.264,7.48,3.2,8.709,1.4,10.84.084,12.971,0,15.84c-.082,1.557,2.377,1.557,2.459,0C2.625,12.07,5.822,9.857,7.953,7.07a7.512,7.512,0,0,0,1.557-2.7c.246-1.148-.574-2.049-.41-3.2C9.264-.389,6.805-.389,6.641,1.168Z" transform="translate(866.501 179.407)" fill="#e8e8e8"/><path d="M9.775,22.055c-2.869-.164-8.279-1.967-6.967-5.984.656-2.131,3.361-2.213,4.508-3.689,1.557-1.885.246-2.951-.984-4.344C5.185,6.727,2.808,6.235,6,3.366c1.8-1.639,4.754.41,6.23,1.639.9.82,1.066,1.721,2.3,2.3a3.655,3.655,0,0,0,2.787.246c1.475-.656,3.115-5,4.672.41a1.146,1.146,0,0,0,1.475.82c.082,1.721.164,3.361.164,5.082-.984,1.23.738,2.951,1.721,1.721,1.557-1.967,3.361-4.426,2.213-7.049A3.9,3.9,0,0,0,22.726,6.4c.492.246.984.574,1.475.82-.656-2.213-1.721-4.508-4.262-4.672a3.418,3.418,0,0,0-2.213.492,10.707,10.707,0,0,1-.984,1.23c-1.721.9-2.213-.656-3.2-1.639C11.824.743,10.431-.323,7.644.087,5.513.415,2.48,1.891,1.742,4.1c-.9,2.623,1.311,3.361,2.3,5.328,1.066.41,1.066.9-.082,1.475a1.745,1.745,0,0,1-.984.9,9.005,9.005,0,0,0-1.148.738A7.216,7.216,0,0,0,.349,14.923c-1.885,5.984,4.262,9.18,9.18,9.508a1.2,1.2,0,1,0,.246-2.377Z" transform="translate(857.712 158.439)" fill="#e8e8e8"/><path d="M2.436,6.746c-.082-1.23-.492-3.443.984-4.18,1.557-.738,1.311,1.639,1.148,2.459-.328,1.557,2.049,2.213,2.377.656A6.134,6.134,0,0,0,6.7,1.664,3.159,3.159,0,0,0,3.583.025C.223.435-.187,4.041.059,6.746c0,1.557,2.459,1.557,2.377,0Z" transform="translate(865.952 148.993)" fill="#e8e8e8"/><path d="M0,1.23V37.377a1.231,1.231,0,0,0,2.459,0V1.23A1.23,1.23,0,0,0,0,1.23Z" transform="translate(854.454 156.641)" fill="#e8e8e8"/><path d="M1.168,2.459H33.873a1.231,1.231,0,0,0,0-2.459H1.168A1.231,1.231,0,0,0,1.168,2.459Z" transform="translate(854.761 193.362)" fill="#e8e8e8"/><path d="M2.459,39.119V1.168A1.231,1.231,0,0,0,0,1.168V39.119A1.231,1.231,0,0,0,2.459,39.119Z" transform="translate(887.077 155.8)" fill="#e8e8e8"/><path d="M1.168,2.459H33.545a1.231,1.231,0,0,0,0-2.459H1.168A1.231,1.231,0,0,0,1.168,2.459Z" transform="translate(855.335 155.739)" fill="#e8e8e8"/></g><path d="M66.8,4.073a17.762,17.762,0,0,0-19.017-2.3C40.647,5.384,36.795,13.827,38.6,22.27c1.475,11.23,2.951,22.541,4.426,33.771C13.106,69.729-1.156,78.663.073,82.762c1.475,5,25.738,2.869,72.869-6.23-2.049-24.181-4.1-48.279-6.148-72.46Z" transform="translate(444.187 597.08)" fill="#191919"/><path d="M23.807,10.7c-1.148,16.476-3.033,43.2-6.23,76.312C13.643,128.574,12,170.46,6.429,211.853.692,254.8-5.62,284.231,8.888,294.477c5.246,3.689,11.557,3.689,16.066,3.115,4.754-1.23,9.508-2.541,14.262-3.771,4.672,2.3,10.984,4.508,16.066,1.885,14.918-7.623.82-46.722,1.885-102.788.738-36.968,7.869-73.853,17.377-122.3C81.758,33.655,87.25,14.475,77,5.048,64.545-6.509,36.921,4.557,23.807,10.7Z" transform="translate(467.175 324.38)" fill="#fff" stroke="#161616" stroke-miterlimit="10" stroke-width="2"/><path d="M22.262,2.972a289.276,289.276,0,0,1,6.393,63.2c-.41,43.115-10.492,70.328-17.787,102.706C4.229,198.219-2.164,241.007.7,296.171c4.344-.82,8.771-1.721,13.115-2.541a15.843,15.843,0,0,0,10.574,2.951c.82-.082,6.23-.656,9.754-4.672,4.344-4.918,3.443-12.213,2.951-15.738-1.885-15.328-2.3-30.82-3.852-46.23a305.036,305.036,0,0,1-1.311-36.476,331.336,331.336,0,0,1,2.541-33.935c3.607-30.41,6.885-35.574,14.017-79.755C53.9,46.5,51.524,52.563,53.574,45.022c1.885-6.721,5.082-16.476,3.361-28.853-.82-5.82-2.3-9.1-4.672-11.476C47.344-.143,40.049-.061,35.7.021A35.6,35.6,0,0,0,22.262,2.972Z" transform="translate(492.244 324.408)" fill="#6d6c6c" opacity="0.14"/><path d="M36.476,0A228.4,228.4,0,0,0,19.918,53.033c-6.885,38.033-.082,57.378-5.9,98.034A267.621,267.621,0,0,1,0,206.231c2.951.41,5.9.82,8.934,1.311,4.426,1.557,10,2.7,14.017,0,7.213-4.836,4.754-19.017,2.951-35.656,0,0-2.213-20.492-2.541-59.427C23.2,90.9,25.164,75,28.033,51.8c2.541-20.82,5.656-38.443,8.443-51.8Z" transform="translate(501.391 410.987)" fill="#6d6c6c" opacity="0.1"/><path d="M66.8,4.073a17.762,17.762,0,0,0-19.017-2.3C40.647,5.384,36.795,13.827,38.6,22.27c1.475,11.23,2.951,22.541,4.426,33.771C13.106,69.729-1.156,78.663.073,82.762c1.475,5,25.738,2.869,72.869-6.23-2.131-24.181-4.18-48.279-6.148-72.46Z" transform="translate(547.63 590.85)" fill="#191919"/><path d="M67.5,11.592c4.754,38.935,9.836,79.1,15.246,120.821,3.689,28.689,4.59,35.492,7.459,46.64,4.918,19.344,11.557,35.82,17.3,65.738,2.7,13.935,4.1,25.246-2.377,33.771-4.836,6.393-14.262,11.475-16.394,9.508-.9-.9-.328-3.2.492-5.246-1.967,1.885-14.426,13.607-24.344,9.508-5.82-2.377-8.2-9.18-9.344-12.869C43.889,243.807,42,208.069,42,208.069c-.738-13.771-2.541-27.869-6.066-56.148A565.978,565.978,0,0,0,17.823,64.707C16.266,63.724,1.02,53.56.036,34.789-.046,33.4-.619,19.215,8.315,9.625,20.118-3.08,45.365-3.982,67.5,11.592Z" transform="translate(516.355 320.952)" fill="#fff" stroke="#161616" stroke-miterlimit="10" stroke-width="2"/><path d="M2.408.832c-2.951,8.525-3.771,18.115.9,26.23C7.326,34.029,13.8,41.652,21.67,44.111c1.475.492,2.131-1.885.656-2.377-7.213-2.213-13.279-9.508-16.885-15.9C1.1,18.291,2.08,9.438,4.785,1.487,5.359.012,2.982-.644,2.408.832Z" transform="translate(515.295 341.548)" fill="#fff"/><path d="M0,1.168A29.24,29.24,0,0,0,21.4,28.135a1.233,1.233,0,0,0,.656-2.377A26.806,26.806,0,0,1,2.461,1.168C2.379-.389-.08-.389,0,1.168Z" transform="translate(515.242 356.458)" fill="#fff"/><path d="M0,0C2.131,6.393,5.41,16.721,9.016,29.508c10.492,37.049,28.607,101.23,29.754,178.444.164,12.869.656,78.361,6.557,78.689,1.393.082,3.689-3.525,6.8-2.7,2.131.574,2.213,2.541,4.1,3.279,4.1,1.557,10.9-5.492,14.18-10.656a26.1,26.1,0,0,0,4.344-11.721c.328-2.623.082-4.508-.82-10.082-1.311-8.607-1.967-12.869-2.459-15-3.525-16.639-9.836-32.623-15-55.164-2.213-9.508-3.689-18.033-5.492-27.869-.574-3.115-2.131-12.213-3.852-23.525C43.279,107.3,42.05,89.509,39.509,66.8c-1.393-12.377-3.525-29.836-6.8-51.066a23.212,23.212,0,0,0-4.918-7.131c-.9-.82-3.689-3.361-11.23-5.738A53.509,53.509,0,0,0,0,0Z" transform="translate(551.556 321.888)" fill="#6d6c6c" opacity="0.14"/><path d="M10.118,0c4.508,20.984,7.541,38.935,9.59,53.033,3.279,22.951,3.443,31.312-.82,40.164C12.5,106.558-.783,114.509.036,115.575c.328.41,2.459-.41,9.836-5.164.246,1.967.82,4.18,2.459,4.918,4.18,1.8,13.443-7.213,17.459-15.82,5.492-11.885,1.475-24.1-2.213-35.82C22.987,48.853,16.84,27.705,10.118,0Z" transform="translate(594.716 494.266)" fill="#6d6c6c" opacity="0.2"/><path d="M157.6.074C149.57-.992,142.193,9.5,127.848,30.4a327.321,327.321,0,0,0-21.23,35.492c-9.754-.492-19.508-.984-29.263-1.557-9.1-.492-18.2-.984-27.3-1.557a161.681,161.681,0,0,0-15.656-4.59C23.667,55.566,1.454,51.222.06,55.074c-.41,1.23,1.066,3.771,10.574,9.754a23.317,23.317,0,0,0,0,16.476c.492,1.23,3.2,7.869,9.59,11.312,8.2,4.344,19.508,1.967,27.787-6.148,6.393,3.852,41.066,24.1,73.689,10.246,10.656-4.508,18.115-11.394,24.754-17.459,12.049-11.066,27.869-25.574,28.279-45.738.328-14.59-7.377-32.131-17.131-33.443Z" transform="translate(338.215 193.124)" fill="#fff" stroke="#161616" stroke-miterlimit="10" stroke-width="2"/><path d="M.26,1.571c3.2,3.2,6.312,6.639,9.918,9.344,3.525,2.623,7.541,4.1,11.639,5.492,1.148.41,1.639-1.393.492-1.8-4.344-1.475-8.525-3.115-12.131-6.066A117.589,117.589,0,0,1,1.571.26C.751-.56-.56.751.26,1.571Z" transform="translate(337.36 247.611)" fill="#161616"/><path d="M11.566.06a20.5,20.5,0,0,0-8.2,5.41C1.811,7.191-.484,9.9.09,12.355c.574,2.787,4.016,2.787,6.312,2.787a21.319,21.319,0,0,0,10.41-3.033c.984-.574.082-2.213-.9-1.557A19.25,19.25,0,0,1,9.27,13.093c-2.049.328-8.033,1.066-6.967-2.787,1.066-3.934,6.312-7.131,9.836-8.443.984-.41.492-2.213-.574-1.8Z" transform="translate(364.825 257.565)" fill="#161616"/><path d="M1,.653C-.726,6.145-.726,11.473,5.176,14.1c4.344,1.967,10.656.984,12.869-3.689.492-1.066-1.066-1.967-1.557-.9-1.8,3.852-6.967,4.508-10.574,2.869-5-2.213-4.508-6.721-3.115-11.23A.935.935,0,0,0,1,.653Z" transform="translate(346.788 258.775)" fill="#161616"/><path d="M0,.861C.33,5.533,3.2,10.123,8.117,11.025a8.975,8.975,0,0,0,9.918-5.738c.41-1.066-1.311-1.557-1.8-.492A7.206,7.206,0,0,1,7.708,9.057C4.1,7.992,2.052,4.385,1.806.861c0-1.148-1.885-1.148-1.8,0Z" transform="translate(347.371 270.699)" fill="#161616"/><path d="M1.271,1.74C7.664.593,5.533,11.986.861,11.576c-1.148-.082-1.148,1.721,0,1.885,3.934.328,6.066-4.508,6.312-7.787A5.281,5.281,0,0,0,.779.1C-.369.183.123,1.9,1.271,1.74Z" transform="translate(363.808 275.147)" fill="#161616"/><path d="M1.735,1.752c0-.082.082-.082.082-.164-.328.082-.574.164-.9.246.656.164.738,2.3.656,2.7A4.433,4.433,0,0,1,.26,7.408c-.82.82.492,2.131,1.311,1.311a6.3,6.3,0,0,0,1.8-4.754C3.292,2.654,2.882.359,1.325.031a.925.925,0,0,0-.9.246C.423.359.341.359.341.441c-.656.9.574,2.213,1.393,1.311Z" transform="translate(362.852 268.496)" fill="#161616"/><path d="M.912,1.806a2.994,2.994,0,0,1,2.7,3.852.935.935,0,0,0,1.8.492A4.773,4.773,0,0,0,.994,0,.9.9,0,1,0,.912,1.806Z" transform="translate(359.249 262.377)" fill="#161616"/><path d="M160.977,0a139.414,139.414,0,0,1-12.541,26.722c-6.393,10.574-13.525,22.3-27.377,32.131A78.633,78.633,0,0,1,77.944,73.935,79.1,79.1,0,0,1,34.583,62.541c-4.918,3.689-8.279,3.934-10.492,3.443-1.967-.492-2.7-1.475-6.148-2.541A27.648,27.648,0,0,0,11.3,62.3C6.55,61.968,1.632,61.64.32,63.853c-1.721,3.033,3.852,9.508,8.2,13.033a21.647,21.647,0,0,0,10.246,5c11.394,1.8,19.836-8.115,20.328-8.689a102.742,102.742,0,0,0,11.885,6.393c8.279,3.852,20,9.18,35.574,9.1a69.3,69.3,0,0,0,33.115-8.443c3.115-1.8,8.934-6.885,20.492-17.131,10.738-9.508,14.672-13.689,18.279-19.426A46.471,46.471,0,0,0,164.83,30c3.361-12.787-1.148-24.426-3.852-30Z" transform="translate(346.971 206.395)" fill="#6d6c6c" opacity="0.12"/><path d="M154.267,0a103.989,103.989,0,0,1-8.934,21.476c-4.344,7.869-15.82,28.115-40.164,40.574C97.955,65.738,85.5,71.968,68.2,71.64A72.274,72.274,0,0,1,29.43,59.1a53.96,53.96,0,0,1-14.59,6.393C6.315,67.705.167,66.968,0,68.2s5.738,3.852,11.885,3.689c8.607-.246,14.672-5.9,16.885-8.2,5.656,4.1,26.8,18.525,54.509,14.836,21.394-2.869,34.918-14.918,46.8-25.574,8.853-7.951,19.1-17.377,23.033-33.115A53.738,53.738,0,0,0,154.267,0Z" transform="translate(358.026 216.231)" fill="#6d6c6c" opacity="0.15"/><path d="M8.835,8.261c-1.639,1.885-4.508,5.9-6.967,25.082-3.279,26.066-1.557,46.722,0,62.132,1.8,18.279,4.344,40.328,8.033,65.41A146.905,146.905,0,0,0,76.295,165.8,143.839,143.839,0,0,0,109,156.54a334.188,334.188,0,0,1-1.066-47.951c2.787-56.312,5.328-71.968,5.328-71.968,1.885-11.23,3.607-18.2-.574-24.508-4.18-6.475-12.131-8.689-37.459-10.328C36.786-.838,17.442-1.9,8.835,8.261Z" transform="translate(478.294 185.266)" fill="#ec615b"/><path d="M0,0C2.541,9.016,4.672,18.607,6.475,28.771,15.82,82.214,9.262,129.591,0,164.919c4.754-.328,9.754-.9,15.082-1.8a161.292,161.292,0,0,0,29.426-7.869c-1.148-16.312-1.475-30.246-1.475-41.312A538.6,538.6,0,0,1,46.968,50C48.443,38.525,50,28.935,51.312,21.967a16.039,16.039,0,0,0-1.066-9.344,17.153,17.153,0,0,0-7.213-7.541c-5.328-3.2-10.738-3.2-13.689-3.2C22.3,1.639,12.951,1.23,0,0Z" transform="translate(542.457 187.215)" fill="#6d6c6c" opacity="0.14"/><path d="M42.705,0C28.2,37.623,25.164,64.509,25.492,82.624c.082,6.8.82,23.115-7.869,40.246A74.212,74.212,0,0,1,0,145.165a127.161,127.161,0,0,0,16.148-3.2,135.838,135.838,0,0,0,19.426-6.8c-.738-21.148-.656-44.1.738-68.607C37.541,42.623,39.836,20.41,42.705,0Z" transform="translate(550.408 206.559)" fill="#6d6c6c" opacity="0.16"/><path d="M19.371.9C29.453-3.529,43.141,9.422,51.994,17.7c9.672,9.1,29.263,27.541,30.246,57.705.82,25.164-11.721,43.361-17.951,50.984a77.631,77.631,0,0,1-27.377,21.148,36.138,36.138,0,0,1-2.377,12.049c-1.066,2.623-6.475,16.394-16.8,16.967-1.393.082-6.148.082-11.639-5.082a4.232,4.232,0,0,1-3.033-1.721,4.735,4.735,0,0,1-.082-5.082A5.674,5.674,0,0,1,.108,160.9a5.558,5.558,0,0,1,1.475-4.918c.082-1.393.41-3.2,1.721-4.1,1.475-.984,3.033-.164,5.41-.328a11.212,11.212,0,0,0,6.393-3.033c-2.951-.82-9.59-2.951-9.426-5.328.082-2.787,9.672-4.426,11.8-4.836a50.721,50.721,0,0,1,12.787-.492c1.8-3.279,4.426-8.115,7.541-13.935,5.246-9.836,7.869-14.754,9.426-18.279a86.763,86.763,0,0,0,7.131-30.328A204.926,204.926,0,0,0,37.814,60.9C22.24,48.767,16.994,48.521,12.731,41.636,4.7,28.767,8.551,5.652,19.371.9Z" transform="translate(562.595 192.874)" fill="#fff" stroke="#161616" stroke-miterlimit="10" stroke-width="2"/><path d="M.023,1.128C1.334,7.521,11.171,6.046,15.105,3.75c.984-.574.082-2.213-.9-1.557C11.335,3.914,2.81,5.8,1.826.718,1.58-.512-.223-.02.023,1.128Z" transform="translate(563.336 346.744)" fill="#161616"/><path d="M.371,2.144C5.29,5.669,12.5,4.029,17.667,1.652c1.066-.492.164-2.049-.9-1.557C12.175,2.144,5.7,3.619,1.355.587.371-.151-.53,1.488.371,2.144Z" transform="translate(563.971 355.974)" fill="#161616"/><path d="M.459,2.892A15.358,15.358,0,0,0,16.115,1.744c.984-.656.082-2.3-.9-1.557A13.44,13.44,0,0,1,1.443,1.334C.377.761-.607,2.318.459,2.892Z" transform="translate(567.572 362.439)" fill="#161616"/><path d="M13.2,3.727C11.559,9.3,30.74,14.629,47.543,32.662c5.82,6.23,17.705,18.935,20.492,37.787,3.525,23.361-8.689,42.05-13.2,48.771a84.552,84.552,0,0,1-25.656,25,26.82,26.82,0,0,1-6.721,17.705c-1.311,1.475-6.475,7.131-14.017,7.951C4.1,170.368.166,169.138,0,169.63c-.082.492,2.951,1.148,6.885,3.852,2.541,1.721,2.623,2.459,3.852,3.033,5.082,2.377,13.115-4.836,14.017-5.574,8.361-7.623,9.344-18.935,9.508-23.115,1.885-1.066,4.426-2.541,7.377-4.508,3.033-2.049,11.967-7.951,19.017-15.738A75.27,75.27,0,0,0,76.806,97.17c1.639-6.148,6.148-23.935-1.066-43.361-3.2-8.443-7.3-13.935-14.672-23.525C54.51,21.678,49.674,17.416,40.33,9.137,33.608,3.153,29.592.366,24.182.038,20.494-.208,14.1.694,13.2,3.727Z" transform="translate(565.243 193.16)" fill="#6d6c6c" opacity="0.18"/><path d="M36.312,0a86.464,86.464,0,0,1,6.23,35.41A83.663,83.663,0,0,1,34.1,69.755,87.089,87.089,0,0,1,0,105.821,70.974,70.974,0,0,0,24.426,90.493C50.082,65.738,46.312,30.82,45.984,28.361A73.616,73.616,0,0,0,36.312,0Z" transform="translate(598.277 234.428)" fill="#6d6c6c" opacity="0.18"/><path d="M71.64,45.728C76.558,62.2,78.361,71.794,85.329,86.876a177.676,177.676,0,0,0,8.607,16.312,86.285,86.285,0,0,1-33.525,8.279,85.67,85.67,0,0,1-22.131-2.131,87.6,87.6,0,0,0,.492-16.558,82.8,82.8,0,0,0-3.934-19.836c-7.869-.984-15.82-2.049-23.689-3.033C9.59,66.466,8.033,62.941,6.475,59.5c-2.131-.082-4.344-.164-6.475-.246C1.639,54.5,4.1,47.039,6.967,37.777c5.328-17.459,5.246-19.918,8.115-23.853C23.033,3.187,40.82-3.7,52.541,2.121c6.967,3.361,11.066,16.8,19.1,43.607Z" transform="translate(469.014 84.929)" fill="#fff" stroke="#161616" stroke-miterlimit="10" stroke-width="2"/><path d="M1.168,3.215A74.815,74.815,0,0,0,13.3,2.395c1.557-.246.9-2.623-.656-2.377A67.478,67.478,0,0,1,1.168.756,1.231,1.231,0,0,0,1.168,3.215Z" transform="translate(468.01 142.278)" fill="#161616"/><path d="M1.842,3.06a5.343,5.343,0,0,1,6.8,1.557c.9,1.311,3.033.082,2.131-1.23A7.862,7.862,0,0,0,.613.929C-.78,1.667.449,3.8,1.842,3.06Z" transform="translate(465.778 111.121)" fill="#161616"/><path d="M1.511,2.746a6.882,6.882,0,0,1,7.869,2.7c.9,1.311,3.033.082,2.131-1.23A9.412,9.412,0,0,0,.855.451,1.193,1.193,0,0,0,1.511,2.746Z" transform="translate(485.454 114.304)" fill="#161616"/><path d="M2.547,5.922A4.265,4.265,0,0,1,3.12,3.3a2.491,2.491,0,0,1,.41-.574c-.328-.41-.492-.492-.41-.082-.164.164-.082.984-.164,1.23a7.213,7.213,0,0,1-.41,1.23,1.792,1.792,0,0,1-.246.41c.41.738.656.82.82.246a8.266,8.266,0,0,0,.738-1.475L4.6,2.807A1.245,1.245,0,0,0,2.629,1.332,4.513,4.513,0,0,0,1.481,3.217a1.233,1.233,0,0,0,2.377.656,1.394,1.394,0,0,1,.492-.82L2.383,1.578C1.809,2.725,1.153,3.873.661,5.1a1.927,1.927,0,0,0,.574,2.541c2.213,1.393,3.607-1.475,4.016-3.2C5.579,2.807,5.579-.636,2.874.1.743.758-.076,3.873.006,5.758c.164,1.721,2.623,1.721,2.541.164Z" transform="translate(484.992 120.309)" fill="#161616"/><path d="M0,29.157A41.313,41.313,0,0,1,5.82,13.665c1.393-2.131,4.262-6.639,8.934-9.672C23.689-1.827,37.377-1.335,47.3,5.8c9.754,6.967,14.59,19.426,12.459,31.886C39.918,34.895,19.918,32.026,0,29.157Z" transform="translate(481.227 73.958)" fill="#5222d0"/><path d="M3.535,7.409q46.107,5.779,92.132,11.557c4.672.574,4.672-6.8,0-7.377Q49.56,5.811,3.535.032C-1.219-.542-1.137,6.835,3.535,7.409Z" transform="translate(445.069 95.953)" fill="#161616"/><path d="M53.708,1.437C48.3,3.4,45.1,7.175,41.495,11.52c-7.7,9.344-5.41,12.787-10.82,18.607C22.068,39.389,13.3,33.9,5.593,43-.965,50.7-.063,61.11.183,63.487c.246,2.3,1.393,11.557,9.016,17.951,6.639,5.492,15.492,6.721,16.066,5.492.164-.41-.492-1.557-5.41-4.836a17.636,17.636,0,0,0,6.557,2.787c3.361.574,6.557,0,6.557-.492,0-.41-1.8-.328-3.2-1.8A6.379,6.379,0,0,1,28.38,79.8c2.7,1.721,6.066,3.279,9.262,2.3,8.771-2.623,10.328-22.049,10.82-28.525,1.639-20.82-4.344-32.213,2.951-39.59.574-.656,3.525-3.607,6.8-2.951,4.1.738,7.213,7.049,5.9,11.23-1.148,3.607-5.246,4.59-5,5.328.41.82,7.3-.492,13.115-5.082,2.131-1.639,3.852-3.033,4.754-5.492,1.557-4.344-.246-9.262-2.7-12.213C69.2-1.1,59.61-.694,53.708,1.437Z" transform="translate(467.438 109.383)" fill="#161616" stroke="#161616" stroke-miterlimit="10" stroke-width="2"/><path d="M8.689,5.656c-1.311.164-3.2.164-3.279-.246-.082-.246.41-.574.41-.574A6.361,6.361,0,0,1,2.3,7.049,3.979,3.979,0,0,1,0,6.557a186.366,186.366,0,0,1,10,26.23,186.32,186.32,0,0,1,6.23,29.918,47.624,47.624,0,0,0,14.262-2.213A49.259,49.259,0,0,0,41.64,55.328,123.065,123.065,0,0,1,28.361,28.2c-.984-2.951-3.115-9.918-4.1-13.361C22.377,8.607,20.82,3.443,19.836,0a19.488,19.488,0,0,1-2.459,1.967A17.621,17.621,0,0,1,8.689,5.656Z" transform="translate(520.572 132.05)" fill="#6d6c6c" opacity="0.22"/><path d="M0,.344a18.533,18.533,0,0,1,14.918,15.41c1.066,8.934-5.492,15.082-6.148,15.574,8.525,1.066,16.967,2.049,25.492,3.115a29.152,29.152,0,0,0-.328-7.787A33.064,33.064,0,0,0,25.164,9.2C23.2,7.229,16.23.59,5.82.016A37.12,37.12,0,0,0,0,.344Z" transform="translate(507.211 74.001)" fill="#321693"/><path d="M0,0C.41,4.426.738,8.934,1.148,13.361l417.3.738c1.229-4.426,2.459-8.934,3.689-13.361Z" transform="translate(326.8 433.118)" fill="#fff"/><path d="M1.23,2.459H5.656A1.231,1.231,0,0,0,5.656,0H1.23A1.23,1.23,0,0,0,1.23,2.459Z" transform="translate(331.144 431.233)" fill="#161616"/><path d="M2.336,4.918h422.3c3.2,0,3.2-4.918,0-4.918H2.336C-.779,0-.779,4.918,2.336,4.918Z" transform="translate(325.529 431.151)" fill="#161616"/><path d="M2.4,4.918H417.975c3.2,0,3.2-4.918,0-4.918H2.4C-.8,0-.8,4.918,2.4,4.918Z" transform="translate(326.615 443.282)" fill="#161616"/><path d="M0,2.336V267.174c0,3.2,4.918,3.2,4.918,0V2.336C4.918-.779,0-.779,0,2.336Z" transform="translate(342.046 457.832)" fill="#161616"/><path d="M0,2.4V241.826c0,3.2,4.918,3.2,4.918,0V2.4C4.918-.8,0-.8,0,2.4Z" transform="translate(684.508 454.491)" fill="#161616"/><path d="M2.4,4.918H483.959c3.2,0,3.2-4.918,0-4.918H2.4C-.8,0-.8,4.918,2.4,4.918Z" transform="translate(0.875 662.71)" fill="#161616"/><path d="M2.4,4.918H427.975c3.2,0,3.2-4.918,0-4.918H2.4C-.8,0-.8,4.918,2.4,4.918Z" transform="translate(576.699 664.923)" fill="#161616"/><path d="M0,2.4V261.252c0,3.2,4.918,3.2,4.918,0V2.4C4.918-.8,0-.8,0,2.4Z" transform="translate(343.029 457.688)" fill="#161616"/><path d="M0,2.336V260.125c0,3.2,4.918,3.2,4.918,0V2.336C4.918-.779,0-.779,0,2.336Z" transform="translate(344.095 458.815)" fill="#161616"/><path d="M0,2.336V237.01c0,3.2,4.918,3.2,4.918,0V2.336C4.918-.779,0-.779,0,2.336Z" transform="translate(684.098 453.323)" fill="#161616"/><path d="M0,2.4V234.94c0,3.2,4.918,3.2,4.918,0V2.4C4.918-.8,0-.8,0,2.4Z" transform="translate(685.245 454.409)" fill="#161616"/><path d="M.629,4.289A123.788,123.788,0,0,1,12.022,20.6c1.639,2.7,5.9.246,4.262-2.459A140.181,140.181,0,0,0,4.071.846C2.022-1.613-1.421,1.83.629,4.289Z" transform="translate(331.089 444.322)" fill="#161616"/><path d="M4.278,19.4C10.343,14.317,16.327,9.153,22.393,4.071,24.77,2.022,21.327-1.421,18.95.629,12.884,5.711,6.9,10.875.835,15.957-1.624,18.006,1.9,21.448,4.278,19.4Z" transform="translate(344.08 443.801)" fill="#161616"/><path d="M1.173,4.631l15.246,9.59c2.7,1.721,5.164-2.541,2.459-4.262L3.632.369C.928-1.271-1.531,2.992,1.173,4.631Z" transform="translate(669.236 446.52)" fill="#161616"/><path d="M12.927.587A155.493,155.493,0,0,0,.713,11.571c-2.213,2.213,1.23,5.738,3.443,3.443A155.493,155.493,0,0,1,16.369,4.03C18.828,2.063,15.386-1.38,12.927.587Z" transform="translate(687.073 444.744)" fill="#161616"/><path d="M1.786,4.934a77.791,77.791,0,0,0,19.508.574c-.41-1.557-.82-3.033-1.23-4.59-2.7,1.721-5.492,2.213-8.689,2.541-1.8.246-3.607,2.7-1.721,4.18a8.718,8.718,0,0,0,8.279,1.885c3.033-.738,1.8-5.492-1.311-4.754A3.322,3.322,0,0,1,13.1,4.115l-1.721,4.18c3.934-.41,7.787-.984,11.148-3.279,1.885-1.23,1.393-4.836-1.23-4.59A75.818,75.818,0,0,1,3.016.016C-.017-.312-1.329,4.442,1.786,4.934Z" transform="translate(672.475 446.463)" fill="#161616"/><path d="M7.755.217A8.4,8.4,0,0,0,1.2,1.365,2.59,2.59,0,0,0,.3,4.725a2.53,2.53,0,0,0,3.361.9,3.1,3.1,0,0,1,2.7-.656A2.59,2.59,0,0,0,9.395,3.25,2.37,2.37,0,0,0,7.755.217Z" transform="translate(690.277 446.508)" fill="#161616"/><path d="M1.117,5.42c1.475.984,6.967,3.525,6.721,5.656L10.3,8.616c-.328,0-1.311-3.771-1.557-4.426C8,5.42,7.346,6.649,6.609,7.879a43.391,43.391,0,0,0,14.1-3.033c-.82-1.393-1.557-2.7-2.377-4.1A83.243,83.243,0,0,1,9.4,8.78l3.361,3.361c2.951-5-1.23-9.1-5.492-11.23-.41,1.557-.82,3.033-1.23,4.59,3.361-.164,6.721-.246,10.082-.082,3.2.164,3.115-4.754,0-4.918A82.758,82.758,0,0,0,6.035.584c-2.3.164-3.525,3.443-1.23,4.59,1.475.738,5.082,2.3,3.771,4.508-1.148,1.967,1.311,4.918,3.361,3.361a84.3,84.3,0,0,0,9.918-8.771c1.557-1.639,0-5.082-2.377-4.1A40.764,40.764,0,0,1,6.691,3.043,2.506,2.506,0,0,0,4.56,6.731c1.393,3.115,1.311,6.885,5.82,6.8a2.521,2.521,0,0,0,2.459-2.459c.656-4.918-5.82-7.7-9.1-9.836C.953-.564-1.506,3.7,1.117,5.42Z" transform="translate(336.175 445.486)" fill="#161616"/><path d="M2.459,13.3V1.168A1.231,1.231,0,0,0,0,1.168V13.3A1.23,1.23,0,0,0,2.459,13.3Z" transform="translate(361.718 417.278)" fill="#e8e8e8"/><path d="M1.168,2.459H69.2A1.231,1.231,0,0,0,69.2,0H1.168A1.231,1.231,0,0,0,1.168,2.459Z" transform="translate(361.78 417.053)" fill="#e8e8e8"/><path d="M0,1.23V12.787a1.231,1.231,0,0,0,2.459,0V1.23A1.23,1.23,0,0,0,0,1.23Z" transform="translate(429.751 417.053)" fill="#e8e8e8"/><path d="M1.168,2.459h52.05a1.231,1.231,0,0,0,0-2.459H1.168A1.231,1.231,0,0,0,1.168,2.459Z" transform="translate(364.894 421.643)" fill="#e8e8e8"/><path d="M1.168,2.459H41.086a1.231,1.231,0,0,0,0-2.459H1.168A1.231,1.231,0,0,0,1.168,2.459Z" transform="translate(376.452 426.315)" fill="#e8e8e8"/><path d="M2.459,9.447V1.168A1.231,1.231,0,0,0,0,1.168V9.447A1.231,1.231,0,0,0,2.459,9.447Z" transform="translate(377.948 408.589)" fill="#e8e8e8"/><path d="M1.168,2.459H60.431a1.231,1.231,0,0,0,0-2.459H1.168A1.231,1.231,0,0,0,1.168,2.459Z" transform="translate(379.567 408.036)" fill="#e8e8e8"/><path d="M1.168,2.459h7.7A1.231,1.231,0,0,0,8.873,0h-7.7A1.231,1.231,0,0,0,1.168,2.459Z" transform="translate(430.551 416.479)" fill="#e8e8e8"/><path d="M0,1.23V9.18a1.231,1.231,0,0,0,2.459,0V1.23A1.23,1.23,0,0,0,0,1.23Z" transform="translate(438.768 408.282)" fill="#e8e8e8"/><path d="M1.23,2.459H15.41A1.231,1.231,0,0,0,15.41,0H1.23A1.23,1.23,0,0,0,1.23,2.459Z" transform="translate(391.39 412.134)" fill="#e8e8e8"/><path d="M1.168,2.459H13.791a1.231,1.231,0,0,0,0-2.459H1.168A1.231,1.231,0,0,0,1.168,2.459Z" transform="translate(415.878 414.184)" fill="#e8e8e8"/><path d="M4.806,13.813C2.839,11.927,2.429,9.059,2.593,6.436c.328-4.344,4.262-4.508,7.541-3.2,1.475.574,2.131-1.8.656-2.377C7.1-.614,2.265-.532.626,3.813-.768,7.5.216,12.829,3.085,15.534,4.232,16.682,5.954,14.878,4.806,13.813Z" transform="translate(389.371 393.076)" fill="#e8e8e8"/><path d="M1.879,2.96c7.7-3.443,10.9,9.508,4.262,12.787-1.393.738-.164,2.787,1.23,2.131C16.879,13.124,11.305-3.926.649.829-.826,1.484.485,3.615,1.879,2.96Z" transform="translate(397.217 392.125)" fill="#e8e8e8"/><path d="M5.3,7.692A16.137,16.137,0,0,0,2.349.561C1.447-.751-.684.479.218,1.79a15.5,15.5,0,0,1,2.7,6.557c.246,1.557,2.623.9,2.377-.656Z" transform="translate(394.041 386.738)" fill="#e8e8e8"/><path d="M2.409,5.545a7.713,7.713,0,0,1,.984-1.8,5.743,5.743,0,0,1,.656-.82c.082-.164.246-.246.41-.41-.41-.82-.656-.984-.82-.574A8.081,8.081,0,0,0,2.572,3.987,18,18,0,0,1,1.179,6.037c-.9,1.311,1.23,2.541,2.131,1.23A23.912,23.912,0,0,0,5.687,3.332c.574-1.148.9-2.623-.574-3.2-2.459-.9-4.344,2.951-5,4.672-.656,1.557,1.721,2.213,2.3.738Z" transform="translate(395.785 384.704)" fill="#e8e8e8"/><path d="M0,.328C.328,4.18.656,8.115.984,11.967l113.362-.984c-.41-3.689-.82-7.377-1.23-10.984C75.328.164,37.705.246,0,.328Z" transform="translate(800.984 554.922)" fill="#fff"/><path d="M2.367,4.918h113.28c3.2,0,3.2-4.918,0-4.918H2.367C-.748,0-.83,4.918,2.367,4.918Z" transform="translate(799.355 563.283)" fill="#161616"/><path d="M2.4,4.918H113.546c3.2,0,3.2-4.918,0-4.918H2.4C-.8,0-.8,4.918,2.4,4.918Z" transform="translate(800.062 552.054)" fill="#161616"/><path d="M0,2.4v8.361c0,3.2,4.918,3.2,4.918,0V2.4C4.918-.8,0-.8,0,2.4Z" transform="translate(798.607 552.853)" fill="#161616"/><path d="M0,2.4V13.545c0,3.2,4.918,3.2,4.918,0V2.4C4.918-.8,0-.8,0,2.4Z" transform="translate(912.542 552.853)" fill="#161616"/><path d="M0,2.4V143.628c0,3.2,4.918,3.2,4.918,0V2.4C4.918-.8,0-.8,0,2.4Z" transform="translate(857.296 564.738)" fill="#161616"/><path d="M26.583.369c-8.443,5-16.885,10-25.41,15-2.7,1.639-.246,5.9,2.459,4.262,8.443-5,16.885-10,25.41-15C31.829,2.992,29.288-1.271,26.583.369Z" transform="translate(830.548 707.26)" fill="#161616"/><path d="M1.226,4.6c9.59,5.328,19.1,10.738,28.689,16.066,2.787,1.557,5.246-2.7,2.459-4.262C22.783,11.075,13.275,5.665,3.685.337.9-1.221-1.561,3.042,1.226,4.6Z" transform="translate(857.299 706.554)" fill="#161616"/><path d="M2.4,6.561c18.2-.164,36.312-.738,54.509-1.639,3.115-.164,3.2-5.082,0-4.918Q29.734,1.356,2.4,1.643C-.8,1.643-.8,6.561,2.4,6.561Z" transform="translate(830.8 722.133)" fill="#161616"/><path d="M.436,3.58A319.627,319.627,0,0,1,20.6,36.368c1.475,2.787,5.738.328,4.262-2.459A319.626,319.626,0,0,0,4.7,1.121C2.895-1.5-1.368.957.436,3.58Z" transform="translate(835.466 565.359)" fill="#161616"/><path d="M27.746.7A157.619,157.619,0,0,0,.369,35.375c-1.639,2.7,2.623,5.246,4.262,2.459A153.272,153.272,0,0,1,31.271,4.227C33.566,2.014,30.041-1.51,27.746.7Z" transform="translate(857.419 564.712)" fill="#161616"/><path d="M47.119,3.443c-.656,11.721-1.23,23.443-1.885,35.164C13.922,52.214-1.16,61.148.07,65.246c1.393,4.918,25.492,3.2,72.132-5Q72.693,30.123,73.1,0C64.5,1.148,55.808,2.3,47.119,3.443Z" transform="translate(637.716 658.366)" fill="#161616"/><path d="M119.345,1.562C112.378,7.791,102.46,16.808,90.9,27.955,63.361,54.677,43.115,74.267,29.426,94.513,18.115,111.317,1.311,143.284,0,195.58a152.53,152.53,0,0,0,42.131,5.574,154.309,154.309,0,0,0,15.738-.984,141.176,141.176,0,0,1,.492-52.3,138.942,138.942,0,0,1,12.705-36.558c36.886-16.394,61.8-36.476,77.706-51.8,16.066-15.492,34.345-33.2,29.426-45.738C173.69,1.889,149.673-2.7,119.345,1.562Z" transform="translate(662.704 470.327)" fill="#ec615b"/><path d="M129.755,0a532.775,532.775,0,0,1-45,52.541,534.892,534.892,0,0,1-64.1,55.984Q10.328,153.895,0,199.182a60.376,60.376,0,0,0,10,.9,67.3,67.3,0,0,0,18.771-2.213,153.376,153.376,0,0,1-.656-40.984A149.545,149.545,0,0,1,41.886,110,342.717,342.717,0,0,0,85.656,85.9s33.115-21.476,58.771-54.427a29.088,29.088,0,0,0,4.1-7.213c1.23-3.2,2.787-7.131,1.557-11.23-1.148-3.689-3.934-5.738-6.885-7.787A31.957,31.957,0,0,0,129.755,0Z" transform="translate(691.065 471.971)" fill="#6d6c6c" opacity="0.18"/><path d="M35,0Q29.713,9.836,24.672,20.656A404.332,404.332,0,0,0,0,89.427c7.541-.328,15-.656,22.541-.9a145.866,145.866,0,0,1-1.557-38.771A142.97,142.97,0,0,1,35,0Z" transform="translate(697.294 582.382)" fill="#6d6c6c" opacity="0.16"/><path d="M28.32,8.689,39.632,43.853Q-2.172,68.935.123,74.017q2.828,6.148,72.132-18.2L53.075,0C44.8,2.787,36.517,5.738,28.32,8.689Z" transform="translate(707.089 664.432)" fill="#161616"/><path d="M170.633,5.9c5.82,29.59-2.951,46.23-7.131,52.623-8.361,12.787-19.508,16.721-52.05,32.869C98.747,97.7,79.4,107.538,55.714,120.57a236.832,236.832,0,0,0,21.394,67.46,68.293,68.293,0,0,1-59.345,18.033A158.231,158.231,0,0,1,.714,144.751c-1.066-16.394-2.3-35,7.3-53.361,7.377-14.1,14.508-15.41,44.345-38.2C97.19,19.012,101.7,6.225,124.813,1.471c18.935-3.852,35.738.656,45.82,4.426Z" transform="translate(699.941 481.893)" fill="#ec615b"/><path d="M108.771.055c.41,9.508-.328,24.426-7.951,39.672C94.427,52.6,85.9,61.777,57.787,80.794,32.787,97.679,12.869,110.712,0,119.073L24.59,201.45a48.219,48.219,0,0,0,8.443-3.771,46.437,46.437,0,0,0,12.049-10,250.394,250.394,0,0,1-10.41-25.738A254.311,254.311,0,0,1,24.1,120.548c20.328-11.312,34.59-18.689,42.951-22.869C79.509,91.45,85.656,88.335,91.968,85.3c2.131-.984,6.885-3.2,13.115-6.475,6.967-3.607,10.41-5.328,13.525-7.459a53.865,53.865,0,0,0,14.1-13.689c7.377-10.656,8.033-21.8,8.525-29.918a78.81,78.81,0,0,0-1.721-21.8,75.149,75.149,0,0,0-16.885-4.918A61.568,61.568,0,0,0,108.771.055Z" transform="translate(731.147 482.244)" fill="#6d6c6c" opacity="0.22"/><path d="M116.886,0a75.108,75.108,0,0,1-7.869,17.459C96.148,38.115,76.476,46.312,62.705,53.2,46.394,61.394,24.426,74.919,0,98.279c6.885-3.852,15.328-8.443,25.164-13.689,17.377-9.262,25.984-13.853,34.918-18.115C67.05,63.2,75,59.673,86.886,53.361c8.525-4.508,13.2-7.3,17.623-12.459A48.53,48.53,0,0,0,113.2,25.328,62.687,62.687,0,0,0,116.886,0Z" transform="translate(755.41 504.184)" fill="#6d6c6c" opacity="0.11"/><path d="M0,0A214.77,214.77,0,0,0,1.475,22.049a216.555,216.555,0,0,0,12.3,50.9,29.989,29.989,0,0,0,5-3.525,23.612,23.612,0,0,0,2.869-2.869c-3.443-7.131-6.8-15.082-10-23.689A269.732,269.732,0,0,1,0,0Z" transform="translate(755.082 603.284)" fill="#6d6c6c" opacity="0.17"/><path d="M159.791.952c-10.246,3.443-12.049,15.656-18.935,29.59,0,0-10.82,22.131-34.508,40.328-8.607,6.639-27.213,18.361-58.279,20.41a64.335,64.335,0,0,0-13.607-3.852c-8.443-1.393-20.246-3.443-28.2,3.361C2.659,93.9-1.358,99.8.446,103.411c2.213,4.426,12.049,2.7,28.2,1.967,22.377-.984,21.312,1.475,36.886.492,13.935-.9,35.9-2.213,58.771-15.574A105.873,105.873,0,0,0,160.2,56.28c5.246-8.2,7.623-14.836,12.459-28.2,6.393-17.541,5.328-21.476,3.525-23.771C173.07.05,165.529-1.016,159.791.952Z" transform="translate(656.766 326.346)" fill="#fff" stroke="#161616" stroke-miterlimit="10" stroke-width="2"/><path d="M17.7.011C12.533.995,5.074,1.241,1.3,5.5c-2.131,2.459-1.8,6.8,2.131,6.8a.944.944,0,0,0,0-1.885c-1.967-2.049-1.8-3.689.656-4.836A14.014,14.014,0,0,1,6.8,4.191a23.334,23.334,0,0,1,3.2-.9c2.7-.574,5.41-1.066,8.2-1.557,1.148-.164.656-1.885-.492-1.721Z" transform="translate(677.384 420.156)" fill="#161616"/><path d="M.219,1.615C5.055,7.68,12.6.631,18.416,2.188a.935.935,0,0,0,.492-1.8,12.38,12.38,0,0,0-7.3.492C8.252,1.942,4.153,3.746,1.448.3.792-.6-.519.713.219,1.615Z" transform="translate(656.174 426.176)" fill="#161616"/><path d="M0,.871c.164,2.459,1.8,3.443,4.18,3.443,5.328,0,10-2.131,15.328-.41A.935.935,0,0,0,20,2.1a19.456,19.456,0,0,0-8.115-.738c-1.967.164-9.836,2.377-10-.574C1.724-.276-.079-.276,0,.871Z" transform="translate(659.341 419.46)" fill="#161616"/><path d="M.084,1.086a5.016,5.016,0,0,0,4.344,3.2c4.18.574,7.787.738,11.639,2.459,1.066.492,2.049-1.148.9-1.557a30.667,30.667,0,0,0-6.557-2.131C7.789,2.562,2.953,3.381,1.806.594,1.4-.471-.408.021.084,1.086Z" transform="translate(667.292 414.163)" fill="#161616"/><path d="M146.816.087c-4.672,1.148-3.279,13.689-5.738,25.328-4.1,18.771-17.459,30.492-32.213,43.443-10,8.771-21.721,19.1-39.59,23.689A151.442,151.442,0,0,1,42.061,96.4c-14.754.738-22.049,1.148-22.541,1.066A28.818,28.818,0,0,0,4.684,99.35c-1.311.574-4.918,2.131-4.672,3.279.328,1.721,8.853,1.23,28.033,1.066,14.18-.082,12.705.164,17.049,0,8.2-.328,22.459-.82,38.525-6.639,22.869-8.2,36.967-22.705,43.443-29.426a102.486,102.486,0,0,0,10.738-13.2c5.082-7.623,7.459-14.426,12.131-27.787,5.41-15.574,5.41-19.672,3.279-22.869-1.475-1.885-4.18-4.262-6.394-3.689Z" transform="translate(679.659 327.456)" fill="#6d6c6c" opacity="0.16"/><path d="M0,12.456A19.984,19.984,0,0,1,9.59,1.718C19.426-2.954,29.017,3.357,29.426,3.6a44.765,44.765,0,0,1-5.246,2.459c-2.049.9-2.869,1.066-3.607,1.885-1.23,1.557-.9,3.852-.574,5.246a40.315,40.315,0,0,1-10.164.82A38.006,38.006,0,0,1,0,12.456Z" transform="translate(658.606 417.958)" fill="#6d6c6c" opacity="0.13"/><path d="M88.607,0A132.29,132.29,0,0,1,61.066,49.509,134.293,134.293,0,0,1,0,88.607c9.262-1.639,43.689-8.934,67.951-40.41A107.627,107.627,0,0,0,88.607,0Z" transform="translate(744.18 340.986)" fill="#6d6c6c" opacity="0.14"/><path d="M37.869,13.319c-5.164,5.656-8.853,13.115-11.23,40.656-3.525,40.246,2.049,49.509-4.18,69.427C19.59,132.5,13.689,145.7,0,159.877a147.749,147.749,0,0,0,46.312,19.672,145.78,145.78,0,0,0,49.836,2.787c14.754-45.328,13.525-81.968,10.492-104.509C103.771,56.352,97.3,6.925,71.558.7,59.345-2.337,45.492,5.04,37.869,13.319Z" transform="translate(775.902 314.635)" fill="#fff" stroke="#161616" stroke-miterlimit="10" stroke-width="2"/><path d="M47.377,0c-.41,3.361-.984,8.361-1.557,14.344-3.852,40.082.656,47.377-2.3,70.984-1.639,13.443-5.082,38.607-22.787,62.05A106.139,106.139,0,0,1,0,168.116,132.449,132.449,0,0,0,39.918,180.9a130.026,130.026,0,0,0,38.115,0,227.663,227.663,0,0,0,8.2-30.082,231.82,231.82,0,0,0,4.344-55.656C89.509,69.181,87.132,13.443,58.607,2.049A30.821,30.821,0,0,0,47.377,0Z" transform="translate(793.525 315.494)" fill="#6d6c6c" opacity="0.12"/><path d="M35.574,0c-.984-.164-3.279,10-6.639,19.18C24.672,31.068,16.639,47.052,0,64.347c8.033-.41,16.148-.738,24.181-1.148a304.807,304.807,0,0,0,8.934-37.623C34.918,14.838,36.8.248,35.574,0Z" transform="translate(847.952 433.198)" fill="#6d6c6c" opacity="0.24"/><path d="M90.592.18c9.262,1.8,13.2,16.476,16.476,29.344,3.279,12.951,9.59,39.345.738,74.1-3.689,14.344-6.967,27.705-18.361,41.23-14.836,17.705-33.771,24.59-42.623,27.131-9.836,6.8-14.918,10.246-17.787,12.049-2.049,1.311-3.279,2.049-5.492,3.607-3.2,2.3-3.771,3.033-5.328,3.689-1.639.656-4.262,1.148-8.2-.082a5.581,5.581,0,0,1-4.754-1.475,4.555,4.555,0,0,1-1.393-3.033A4.144,4.144,0,0,1,1,185.263a4.109,4.109,0,0,1-.328-4.426,5.957,5.957,0,0,1-.656-2.7c-.41-5.738,6.393-10.328,10.164-12.951,4.016-2.787,11.967-7.213,24.262-8.361a84.091,84.091,0,0,0,25.328-20.41c2.787-3.279,21.394-26.394,19.918-57.459-.574-13.033-5.246-37.3-7.869-59.919A17.219,17.219,0,0,1,73.543,8.7C76.986,2.885,84.854-.886,90.592.18Z" transform="translate(771.868 326.708)" fill="#fff" stroke="#161616" stroke-miterlimit="10" stroke-width="2"/><path d="M.861,1.885A.944.944,0,0,0,.861,0,.947.947,0,0,0,.861,1.885Z" transform="translate(771.926 506.234)" fill="#161616"/><path d="M0,9.958v.574a.932.932,0,0,0,1.721.492,25.883,25.883,0,0,1,12.869-9.18A.935.935,0,0,0,14.1.04a28.183,28.183,0,0,0-14.017,10l1.721.492V9.958C1.806,8.81-.079,8.81,0,9.958Z" transform="translate(771.883 497.177)" fill="#161616"/><path d="M1.529,12.6A40.049,40.049,0,0,1,16.775,1.863c1.066-.41.656-2.213-.492-1.8A41.493,41.493,0,0,0,.218,11.208C-.52,12.191.792,13.5,1.529,12.6Z" transform="translate(774.946 501.173)" fill="#161616"/><path d="M1.49,13.841A60.118,60.118,0,0,1,16.244,1.71c.984-.574.082-2.213-.9-1.557A61.164,61.164,0,0,0,.26,12.611c-.82.82.492,2.131,1.23,1.23Z" transform="translate(781.133 504.36)" fill="#161616"/><path d="M75.409,2.676c-3.115,4.508,1.967,12.459,4.836,18.361,4.18,8.689,4.836,18.115,6.148,36.968C88.77,92.185,72.868,121.448,71.721,123.5c-14.508,25.82-37.049,41.312-44.1,46.066C15.655,177.6-1.313,186.366.081,189.727c.492,1.23,3.2,1.393,4.344,1.311,3.934-.164,5.574-3.2,11.066-7.049,2.869-2.049,2.787-1.393,7.7-4.344A128.193,128.193,0,0,0,35,171.612a85.187,85.187,0,0,0,24.181-10.738A82.808,82.808,0,0,0,89.426,126.2c2.951-6.475,4.1-11.639,6.393-21.885,2.377-10.738,6.148-28.361,4.016-50.82-.984-10.164-2.7-16.967-5.082-25.9C91.065,13.25,87.7.873,81.311.053a6.63,6.63,0,0,0-5.9,2.623Z" transform="translate(783.444 327.327)" fill="#6d6c6c" opacity="0.13"/><path d="M93.689,0c-.738,0-.574,8.607-4.1,31.476-3.2,20.492-4.836,30.984-9.344,40.574A89.681,89.681,0,0,1,60.41,98.935C48.033,110.9,40.574,111.722,21.64,125.657A231.218,231.218,0,0,0,0,143.69c9.836-6.557,19.59-13.115,29.426-19.59,9.016-2.623,27.541-9.508,42.459-27.131C82.132,84.837,86.148,72.951,89.263,63.689,99.919,30.656,95,0,93.689,0Z" transform="translate(788.525 374.839)" fill="#6d6c6c" opacity="0.16"/><path d="M5.185,1.544C1.5,4.085.841,9,.267,14.413A54.183,54.183,0,0,0,4.611,41.38a59.679,59.679,0,0,0,11.23-1.066,57.435,57.435,0,0,0,8.771-2.459c-.328-10.9-.574-21.8-.9-32.705C16.825.068,9.611-1.489,5.185,1.544Z" transform="translate(820.471 289.606)" fill="#fff" stroke="#161616" stroke-miterlimit="10" stroke-width="2"/><path d="M23.745,2.944c-5.738,3.279-8.2,8.771-13.033,19.426C5.3,34.5,1.532,44.994.056,52.7A2.482,2.482,0,0,0,1.45,55.486c1.393.656,3.852.9,5.164,1.23a33.319,33.319,0,0,0,3.279,14.59c5.246,10.738,14.918,15.082,17.787,16.23a58.652,58.652,0,0,0,19.836-7.049A44.851,44.851,0,0,0,60.631,70.24a41.566,41.566,0,0,0,7.541-13.115,14.357,14.357,0,0,0,7.049-1.639C80.795,52.453,85.549,44.5,82.6,39.666c-2.213-3.525-8.279-5-14.508-2.7a43.528,43.528,0,0,0-.9-10.492c-.246-1.066-1.967-8.853-5.9-14.344C53.745,1.551,35.385-3.7,23.745,2.944Z" transform="translate(782.403 233.533)" fill="#fff" stroke="#161616" stroke-miterlimit="10" stroke-width="2"/><path d="M5.966,59.92a36.807,36.807,0,0,1-5.9-21.885C.31,34.428.8,27.543,5.8,21.067A28.9,28.9,0,0,1,22.77,10.657,22.861,22.861,0,0,1,29.163,3.69c1.311-.9,4.918-3.115,13.771-3.607A61.36,61.36,0,0,1,63.262,2.46,39.091,39.091,0,0,1,77.032,9.428c10.41,8.2,9.59,14.672,22.787,27.951,3.033,3.033,5.164,4.1,9.754,8.607a124.548,124.548,0,0,1,10.82,11.885c4.836,6.148,13.935,17.787,15.656,33.525.574,5.328,2.213,20.328-7.131,31.8-12.705,15.656-41.394,16.885-58.853,4.426-3.279-2.3-16.885-12.131-16.148-27.951.656-14.262,12.541-22.787,14.18-24.017a10.218,10.218,0,0,0,7.049.492c5.82-2.131,8.279-11.066,5.246-15.574a7.319,7.319,0,0,0-3.771-2.7c-4.754-1.639-9.18,1.885-9.508,2.131A109.459,109.459,0,0,1,52.524,47.3a75.028,75.028,0,0,1-7.7-8.934,74.472,74.472,0,0,1-5.656-9.344A44.288,44.288,0,0,0,25.311,35a45.223,45.223,0,0,0-9.59,8.361,57.562,57.562,0,0,0-5.41,7.377,86.513,86.513,0,0,0-4.344,9.18Z" transform="translate(779.526 213.689)" fill="#5222d0"/><path d="M1.766,1.015h0a3.55,3.55,0,0,1,.082.41v.082c-.082.164-.164.246-.246.41.164-.164,0-.082-.328.164C1.111,2,.947,2,.783,1.917.7,1.835.619,1.835.619,1.753.537,1.589.537,1.425.455,1.261V1.179C.537,1.015.619.933.7.769c.164,0,.328-.082.492-.082l.656.656v.246c-.41.082-.82.246-1.23.328L.537,1.835c-.082-.164-.164-.246-.246-.41A4.867,4.867,0,0,1,.619.769C.783.687.947.687,1.111.605H1.029a.969.969,0,0,0-.9.9.86.86,0,0,0,.9.9,1.135,1.135,0,0,0,1.066-.9A1.108,1.108,0,0,0,1.521.2.9.9,0,0,0,.291.523a1.126,1.126,0,0,0,.656,1.8A1.251,1.251,0,0,0,2.34,1.1,1.167,1.167,0,0,0,.865.032,1.216,1.216,0,0,0,.127,1.753a.871.871,0,0,0,1.23.328c.574-.082.574-.656.41-1.066Z" transform="translate(800.447 279.889)" fill="#161616"/><path d="M1.659,1.146c.164.82-.164.738-.9-.246C.921.818,1,.736,1.167.654a.761.761,0,0,1,.738.574c.082-.492-.492-.9-.9-.9a.86.86,0,0,0-.9.9,1.184,1.184,0,0,0,1.311,1.23A1.159,1.159,0,0,0,2.478.9,1.248,1.248,0,0,0,.675.162,1.345,1.345,0,0,0,.183,2.048a.856.856,0,0,0,1.23.328.885.885,0,0,0,.246-1.23Z" transform="translate(807.768 277.791)" fill="#161616"/><path d="M1.311.8c.492,0,.574.164.246.574,0,.328-.082.492-.328.492C1.148,1.533,1.148,1.123,1.066.8a.642.642,0,0,1,.656.082C.9-.025-.41,1.287.41,2.189a1.275,1.275,0,0,0,2.049-.246A1.329,1.329,0,0,0,1.721.057,1.344,1.344,0,0,0,0,1.2,1.468,1.468,0,0,0,1.721,2.6.925.925,0,1,0,1.311.8Z" transform="translate(805.82 283.551)" fill="#161616"/><path d="M1.128,9.523A18.718,18.718,0,0,0,13.5,1.327c.656-.984-.9-1.885-1.557-.9A17.128,17.128,0,0,1,.718,7.8c-1.23.164-.738,1.885.41,1.721Z" transform="translate(790.84 292.692)" fill="#161616"/><path d="M8.607,0c1.475,2.951,3.361,6.885,5.492,11.557,6.557,14.262,7.3,18.2,7.541,21.64a35.651,35.651,0,0,1-1.311,11.885C16.558,60.328,5.492,70.492,0,74.919a46.807,46.807,0,0,0,9.59-2.131A48.931,48.931,0,0,0,22.459,66.23a26.519,26.519,0,0,0,1.23,10.9c1.639,5.246,4.59,8.525,7.049,11.639a36.47,36.47,0,0,0,10.574,9.18,37.361,37.361,0,0,0,12.951,4.59,53.131,53.131,0,0,0,16.476,1.066c5.328-.492,13.771-1.23,21.64-7.3A28.992,28.992,0,0,0,101.558,85c.656-1.475,1.639-4.262,2.131-11.639.574-8.689.984-14.754-1.066-22.459A48.487,48.487,0,0,0,92.87,32.3C86.312,49.918,70.492,60.082,56.23,57.951c-11.148-1.721-17.869-10.492-19.836-13.2A11.176,11.176,0,0,0,47.705,41.23c3.033-3.607,3.934-10.082,0-13.525-3.115-2.7-8.279-2.787-12.131.246a107.392,107.392,0,0,1-15.41-13.525A102.138,102.138,0,0,1,8.607,0Z" transform="translate(811.23 245.412)" fill="#6d6c6c" opacity="0.1"/><path d="M1.908,4.332a2.109,2.109,0,0,1,.246-2.7c-.246.082-.41.164-.656.246h.246c-.246-.082-.41-.164-.656-.246.82.656.164,3.2-.164,3.934a3.47,3.47,0,0,1,.574-.41.286.286,0,0,0-.164.082c.246,0,.492.082.738.082-.492-.246-.41-1.557-.328-1.885a5.012,5.012,0,0,1,.574-1.967c-.41.082-.82.246-1.23.328A1.607,1.607,0,0,1,1.5,3.267a1.544,1.544,0,0,1-.164.656c-.082.41-.246.41.164.492a3.47,3.47,0,0,0,.574.41c0-.082-.082-.082-.082-.164-.738-.9-2.3,0-1.557.9a1.439,1.439,0,0,0,1.639.574A2.025,2.025,0,0,0,3.219,4.5c.41-1.639.41-3.279-1.066-4.344A.841.841,0,0,0,.924.48C.1,2.119-.387,4.66.678,6.3a1.388,1.388,0,0,0,1.967.492c.738-.574.82-2.049.9-2.869C3.711,2.693,3.465-.832,1.334.234-.387,1.136-.223,3.922.6,5.316c.328.984,1.967,0,1.311-.984Z" transform="translate(798.994 267.719)" fill="#161616"/><path d="M1.145,1.864C5.489,1.127,9.178,3.5,12.538,6.045c.984.738,1.885-.9.9-1.557C9.67,1.619,5.571-.595.653.143-.494.225,0,2.028,1.145,1.864Z" transform="translate(795.986 261.826)" fill="#161616"/><path d="M.425,1.791A12.092,12.092,0,0,1,2.884,3.922c.82.9,2.131-.41,1.311-1.311A16.777,16.777,0,0,0,1.327.152C.343-.5-.559,1.136.425,1.791Z" transform="translate(801.624 291.408)" fill="#161616"/></g></svg>